<svg xmlns="http://www.w3.org/2000/svg" width="200" height="64" viewBox="0 0 200 64"><path fill="#22223B" d="M46.3 5.5h6.6v23h14.2v5.3H46.3V5.5zM76 32.4c-2.4-1.3-4.2-3-5.5-5.2-1.3-2.2-2-4.7-2-7.5s.7-5.3 2-7.5 3.2-4 5.5-5.2c2.4-1.3 5-1.9 8-1.9 2.9 0 5.6.6 7.9 1.9 2.3 1.3 4.2 3 5.5 5.2 1.3 2.2 2 4.7 2 7.5s-.7 5.3-2 7.5c-1.4 2.2-3.2 4-5.5 5.2-2.3 1.3-5 1.9-7.9 1.9-2.9 0-5.6-.6-8-1.9zm12.5-4.8c1.3-.8 2.4-1.8 3.2-3.2.8-1.4 1.2-2.9 1.2-4.7 0-1.8-.4-3.3-1.2-4.7-.8-1.4-1.8-2.4-3.2-3.2-1.4-.8-2.9-1.2-4.5-1.2-1.7 0-3.2.4-4.5 1.2-1.4.8-2.4 1.8-3.2 3.2-.8 1.4-1.2 2.9-1.2 4.7 0 1.8.4 3.3 1.2 4.7.8 1.4 1.8 2.4 3.2 3.2 1.3.8 2.9 1.2 4.5 1.2 1.7-.1 3.2-.5 4.5-1.2zm34 6.2l-5.5-7.9h-6v7.9h-6.6V5.5h12.3c2.5 0 4.7.4 6.5 1.3 1.8.8 3.3 2 4.3 3.6 1 1.5 1.5 3.4 1.5 5.5s-.5 3.9-1.5 5.4c-1 1.5-2.5 2.7-4.3 3.5l6.4 9.1h-7.1zm-1.6-21.7c-1-.9-2.5-1.3-4.5-1.3H111v9.9h5.3c2 0 3.5-.4 4.5-1.3s1.5-2.1 1.5-3.6c.1-1.6-.4-2.8-1.4-3.7zm35.3 16.5v5.3h-22V5.5h21.4v5.3h-14.9V17h13.2v5h-13.2v6.6h15.5zm31 5.2v-17l-8.3 14h-3l-8.3-13.6v16.6h-6.2V5.5h5.4l10.6 17.6 10.4-17.6h5.4l.1 28.3h-6.1z"/><path fill="#9A8C98" d="M53.4 50.1V55H52v-4.9l-5.7-9.3h1.6l4.9 8 4.9-8h1.5l-5.8 9.3zm10.3 4.3c-.8-.5-1.5-1.1-1.9-1.9-.5-.8-.7-1.8-.7-2.8 0-1 .2-2 .7-2.8.5-.8 1.1-1.5 1.9-1.9.8-.5 1.7-.7 2.8-.7 1 0 2 .2 2.8.7.8.5 1.5 1.1 1.9 1.9.5.8.7 1.8.7 2.8 0 1-.2 2-.7 2.8-.5.8-1.1 1.5-1.9 1.9-.8.5-1.7.7-2.8.7-1 0-1.9-.3-2.8-.7zm4.8-1.1c.6-.3 1.1-.8 1.4-1.5.3-.6.5-1.4.5-2.2 0-.8-.2-1.5-.5-2.2-.3-.6-.8-1.1-1.4-1.5-.6-.3-1.3-.5-2-.5-.8 0-1.4.2-2 .5-.6.3-1.1.8-1.4 1.5-.3.6-.5 1.4-.5 2.2 0 .8.2 1.5.5 2.2.3.6.8 1.1 1.4 1.5s1.3.5 2 .5c.8 0 1.4-.2 2-.5zm18.2-9V55h-1.4v-2c-.4.6-.9 1.2-1.6 1.5-.7.4-1.4.5-2.3.5-1.4 0-2.5-.4-3.3-1.2-.7-.7-1.1-1.8-1.1-3.3v-6.2h1.4v6c0 1.1.3 2 .8 2.6.6.6 1.3.9 2.4.9 1.1 0 2-.3 2.7-1 .6-.7 1-1.6 1-2.8v-5.6h1.4zm9.1.5c.7-.4 1.5-.5 2.5-.5v1.4H98c-1.1 0-2 .3-2.6 1-.6.7-1 1.7-1 2.9V55H93V44.3h1.4v2.1c.2-.7.7-1.3 1.4-1.6zm16.4-2.7h-5v-1.3h11.5v1.3h-5V55h-1.5V42.1zm17.1 3.2c.7.7 1.1 1.7 1.1 3.1V55H129v-1.7c-.3.6-.8 1-1.4 1.3-.6.3-1.4.5-2.2.5-1.2 0-2.1-.3-2.8-.9-.7-.6-1.1-1.3-1.1-2.2 0-.9.3-1.6 1-2.2.7-.6 1.7-.8 3.1-.8h3.4v-.6c0-.9-.3-1.6-.8-2.1s-1.3-.7-2.2-.7c-.7 0-1.3.1-1.9.3-.6.2-1.2.5-1.6.9l-.6-1.1c.5-.5 1.2-.8 1.9-1.1.8-.2 1.6-.4 2.4-.4 1.3 0 2.4.4 3.1 1.1zm-1.6 8.1c.6-.4 1-.9 1.3-1.6V50h-3.3c-1.8 0-2.7.6-2.7 1.9 0 .6.2 1.1.7 1.5.5.4 1.1.5 2 .5.7 0 1.4-.1 2-.5zm18.8-9.1v9.4c0 1.8-.4 3.1-1.3 4-.9.9-2.2 1.3-4 1.3-1 0-1.9-.1-2.8-.4-.9-.3-1.6-.7-2.2-1.2l.7-1.1c.5.5 1.1.8 1.9 1.1.7.3 1.5.4 2.3.4 1.3 0 2.3-.3 3-.9.6-.6 1-1.6 1-2.9v-1.4c-.4.7-1 1.2-1.8 1.5-.7.4-1.5.5-2.4.5-1 0-1.9-.2-2.7-.7-.8-.4-1.5-1.1-1.9-1.8-.5-.8-.7-1.7-.7-2.7s.2-1.9.7-2.7c.5-.8 1.1-1.4 1.9-1.8.8-.4 1.7-.6 2.7-.6.9 0 1.7.2 2.4.5.7.4 1.3.9 1.8 1.6v-2h1.4zm-3.4 8.5c.6-.3 1.1-.8 1.4-1.4.3-.6.5-1.3.5-2s-.2-1.4-.5-2c-.3-.6-.8-1-1.4-1.4-.6-.3-1.3-.5-2.1-.5s-1.5.2-2.1.5c-.6.3-1.1.8-1.4 1.4-.3.6-.5 1.3-.5 2s.2 1.4.5 2c.3.6.8 1.1 1.4 1.4.6.3 1.3.5 2.1.5s1.5-.2 2.1-.5zm9.6-12.9h1.4v15h-1.4v-15zm7.7 1.8c-.2-.2-.3-.4-.3-.7 0-.3.1-.5.3-.7.2-.2.5-.3.7-.3s.5.1.8.3c.2.2.3.4.3.7 0 .3-.1.5-.3.7-.2.2-.5.3-.8.3s-.5-.1-.7-.3zm0 2.6h1.4V55h-1.4V44.3zm16.3 1.1c.8.8 1.2 1.9 1.2 3.4V55h-1.4v-6c0-1.1-.3-2-.8-2.5-.6-.6-1.3-.9-2.4-.9-1.1 0-2.1.3-2.7 1-.7.7-1 1.6-1 2.8V55h-1.4V44.3h1.4v2c.4-.6.9-1.2 1.6-1.5.7-.4 1.5-.5 2.4-.5 1.2-.1 2.3.3 3.1 1.1zm16.6 4.7h-8.9c.1 1.1.5 2 1.3 2.7.8.7 1.7 1 2.9 1 .7 0 1.3-.1 1.8-.4.6-.2 1-.6 1.4-1l.8.9c-.5.6-1.1 1-1.8 1.3-.7.3-1.5.4-2.3.4-1.1 0-2.1-.2-2.9-.7s-1.5-1.1-2-1.9c-.5-.8-.7-1.8-.7-2.8 0-1 .2-2 .7-2.8.5-.8 1.1-1.5 1.9-1.9.8-.5 1.7-.7 2.7-.7 1 0 1.9.2 2.7.7.8.5 1.4 1.1 1.8 1.9.4.8.7 1.8.7 2.8l-.1.5zm-7.7-3.6c-.7.7-1.1 1.5-1.2 2.6h7.6c-.1-1.1-.5-1.9-1.2-2.6-.7-.7-1.6-1-2.6-1s-1.9.3-2.6 1z"/><path fill="#22223B" d="M6.7 12L24 2v20z"/><path fill="#4A4E69" d="M41.3 12L24 2v20z"/><path fill="#9A8C98" d="M41.3 32V12L24 22zM6.7 32L24 42V22z"/><path fill="#C9ADA7" d="M24 22v20l17.3-10z"/><path fill="#4A4E69" d="M6.7 32v20L24 42z"/><path fill="#22223B" d="M6.7 52L24 62V42z"/><path fill="#9A8C98" d="M24 42v20l17.3-10z"/></svg>