<svg xmlns="http://www.w3.org/2000/svg" width="100" height="24"><switch><g><path fill="#202020" d="M25 5.3h7.1v2.1h-4.7v2.9h4.4v2.1h-4.4v4.8H25V5.3zM33.6 9c.5-.2 1-.4 1.6-.5.6-.1 1.3-.2 2-.2.6 0 1.1.1 1.5.2.4.1.7.3.9.6s.4.6.5.9c.1.4.1.8.1 1.2 0 .5 0 1-.1 1.5 0 .5-.1 1-.1 1.5v1.4c0 .4.1.9.3 1.3h-1.8l-.4-1.2H38c-.2.4-.5.7-.9.9-.4.3-.9.4-1.6.4-.4 0-.8-.1-1.1-.2-.3-.1-.6-.3-.8-.5-.2-.2-.4-.5-.5-.8-.1-.3-.2-.6-.2-1 0-.5.1-1 .3-1.3s.6-.6 1-.9c.4-.2 1-.4 1.6-.5.6-.1 1.3-.1 2-.1.1-.6 0-1.1-.1-1.4s-.6-.4-1.1-.4c-.4 0-.9 0-1.4.1-.5.1-.9.2-1.2.4L33.6 9zm2.8 6.4c.4 0 .8-.1 1.1-.3.3-.2.5-.4.6-.6v-1.1h-1c-.3 0-.6.1-.9.2-.3.1-.4.2-.6.3-.1.1-.2.3-.2.6s.1.6.3.7c.1.1.4.2.7.2zm7.8-1.7h-.6v3.5h-2.2V5.3h2.2v7l.5-.2L46 8.7h2.4l-2 3.2-.9.6.9.7 2.3 4h-2.5l-2-3.5zM57 16.4c-.3.3-.8.5-1.4.7s-1.2.3-1.9.3c-1.4 0-2.4-.4-3-1.2s-1-1.9-1-3.3c0-1.5.4-2.6 1.1-3.4.7-.7 1.7-1.1 3-1.1.4 0 .8.1 1.3.2s.8.3 1.1.6.6.6.8 1.1c.2.4.3 1 .3 1.6v.8c0 .3-.1.6-.1.8H52c0 .7.2 1.3.6 1.6.3.4.9.5 1.6.5.5 0 .9-.1 1.2-.2.4-.1.6-.3.8-.4l.8 1.4zm-3.1-6.2c-.6 0-1 .2-1.3.5-.3.3-.4.8-.5 1.4h3.1c0-.6 0-1.1-.3-1.4-.2-.3-.5-.5-1-.5zm15.9 7h-7.5V5.3h2.3v9.8h5.2v2.1zm1-4.3c0-1.4.4-2.5 1.1-3.3.7-.8 1.7-1.2 3-1.2.7 0 1.3.1 1.8.3.5.2.9.5 1.2.9.3.4.6.9.7 1.4.2.6.2 1.2.2 1.8 0 1.4-.3 2.5-1 3.3s-1.7 1.2-2.9 1.2c-.7 0-1.3-.1-1.8-.3-.5-.2-.9-.5-1.3-.9s-.6-.9-.7-1.4c-.2-.5-.3-1.1-.3-1.8zm2.3 0c0 .4 0 .7.1 1 .1.3.2.6.3.8.1.2.3.4.5.6.2.1.5.2.8.2.6 0 1-.2 1.3-.6s.4-1.1.4-2c0-.8-.1-1.4-.4-1.9-.3-.5-.7-.7-1.3-.7-.5 0-1 .2-1.3.6-.2.4-.4 1.1-.4 2zm14.3 4.3c0 1.2-.3 2.1-1 2.7-.7.6-1.6.9-2.8.9-.8 0-1.5-.1-1.9-.2-.5-.1-.8-.2-1.1-.4l.5-1.8.9.3c.3.1.8.2 1.3.2.8 0 1.3-.2 1.6-.5.3-.3.4-.8.4-1.4v-.5h-.1c-.4.5-1.1.8-2.1.8-1.1 0-1.9-.3-2.5-1-.5-.7-.8-1.7-.8-3.2 0-1.5.4-2.7 1.1-3.5.7-.8 1.8-1.2 3.2-1.2.7 0 1.4.1 1.9.2.6.1 1 .2 1.4.4v8.2zm-3.7-1.7c.4 0 .8-.1 1-.3.2-.2.4-.5.5-.9v-3.8c-.4-.1-.8-.2-1.3-.2-.6 0-1 .2-1.3.6-.3.4-.5 1.1-.5 2 0 .8.1 1.5.4 1.9.3.5.7.7 1.2.7zm4.7-2.6c0-1.4.4-2.5 1.1-3.3.7-.8 1.7-1.2 3-1.2.7 0 1.3.1 1.8.3.5.2.9.5 1.2.9.3.4.6.9.7 1.4.2.6.2 1.2.2 1.8 0 1.4-.3 2.5-1 3.3s-1.7 1.2-2.9 1.2c-.7 0-1.3-.1-1.8-.3-.5-.2-.9-.5-1.3-.9s-.6-.9-.7-1.4c-.2-.5-.3-1.1-.3-1.8zm2.3 0c0 .4 0 .7.1 1 .1.3.2.6.3.8.1.2.3.4.5.6.2.1.5.2.8.2.6 0 1-.2 1.3-.6s.4-1.1.4-2c0-.8-.1-1.4-.4-1.9-.3-.5-.7-.7-1.3-.7-.5 0-1 .2-1.3.6-.2.4-.4 1.1-.4 2z"/><path fill="#802080" d="M15.1 12.7c.7 0 1.3-.4 1.6-.9L19.9 6c.3-.6-.1-1.3-.8-1.3H5.8l-.9-1.9H2v1.8h1.8L7 11.4l-1.2 2.2c-.7 1.2.2 2.7 1.6 2.7h10.8v-1.8H7.4l1-1.8h6.7zM6.6 6.4h10.9L15 10.9H8.8L6.6 6.4zm.8 10.8c-1 0-1.8.8-1.8 1.8s.8 1.8 1.8 1.8S9.2 20 9.2 19s-.8-1.8-1.8-1.8zm9 0c-1 0-1.8.8-1.8 1.8s.8 1.8 1.8 1.8 1.8-.8 1.8-1.8-.8-1.8-1.8-1.8z"/></g></switch></svg>