<svg xmlns="http://www.w3.org/2000/svg" width="270" height="64" viewBox="0 0 270 64"><path fill="#303030" d="M10.3 6.1L2.5 20.9l21.3 37h17.3z"/><path fill-rule="evenodd" clip-rule="evenodd" fill="#909090" d="M23.8 20.9l7-14.8 22.8.3 8.9 14.4z"/><path fill="#606060" d="M23.8 57.9h17.3l21.4-37.1-8.9-14.4zM78.3 27c-2.5 0-4.6-.8-6.3-2.5-1.7-1.7-2.5-3.7-2.5-6.2s.8-4.6 2.5-6.2c1.7-1.7 3.7-2.5 6.3-2.5 1.5 0 2.9.3 4.2 1 1.3.7 2.3 1.6 3 2.8l-3.3 1.9c-.4-.7-.9-1.2-1.6-1.5-.7-.4-1.5-.5-2.3-.5-1.5 0-2.7.5-3.6 1.4-.9.9-1.3 2.1-1.3 3.6s.4 2.7 1.3 3.6c.9.9 2.1 1.4 3.6 1.4.8 0 1.6-.2 2.3-.6s1.2-.9 1.6-1.5l3.3 1.9c-.7 1.2-1.7 2.1-3 2.8-1.3.8-2.7 1.1-4.2 1.1zm24.1-2.5c-1.7 1.7-3.8 2.5-6.2 2.5s-4.5-.8-6.2-2.5c-1.7-1.7-2.5-3.8-2.5-6.2 0-2.5.8-4.5 2.5-6.2 1.7-1.7 3.8-2.5 6.2-2.5s4.5.8 6.2 2.5c1.7 1.7 2.5 3.8 2.5 6.2.1 2.4-.8 4.5-2.5 6.2zm-9.6-2.6c.9.9 2.1 1.4 3.5 1.4s2.6-.5 3.5-1.4 1.4-2.1 1.4-3.6-.5-2.7-1.4-3.6-2.1-1.4-3.5-1.4-2.6.5-3.5 1.4-1.4 2.1-1.4 3.6c0 1.4.4 2.6 1.4 3.6zm32.3-12v16.8h-3.8v-9.8L117 24h-.4l-4.3-7.1v9.8h-3.8V9.9h3.8l4.6 7.5 4.6-7.5h3.6zm10.5 0c1.6 0 3 .6 4.2 1.7 1.1 1.1 1.7 2.5 1.7 4.1 0 1.6-.6 3-1.7 4.1-1.1 1.1-2.5 1.7-4.2 1.7h-2.5v5.3h-3.8V9.9h6.3zm0 7.9c.6 0 1.1-.2 1.5-.6.4-.4.6-.9.6-1.5s-.2-1.1-.6-1.5c-.4-.4-.9-.6-1.5-.6h-2.5v4.3h2.5zm18.3 8.9L153 24h-6.5l-.8 2.6h-4.2l5.7-16.8h4.9l5.7 16.8h-3.9zm-6.2-6.3h4.1l-2.1-6.2-2 6.2zm22.1-10.5h3.8v16.8h-2.9l-6.5-9.1v9.1h-3.8V9.9h2.9l6.5 9.1V9.9zm21.6 0l-5.6 10.3v6.5H182v-6.5l-5.6-10.3h4.4l3.2 6.5 3.2-6.5h4.2zm19.2 0h3.8v16.8h-2.9l-6.5-9.1v9.1h-3.8V9.9h2.9l6.5 9.1V9.9zm18.9 16.8l-.9-2.6h-6.5l-.8 2.6h-4.2l5.7-16.8h4.9l5.7 16.8h-3.9zm-6.2-6.3h4.1l-2.1-6.2-2 6.2zm29.5-10.5v16.8H249v-9.8l-4.3 7.1h-.4l-4.3-7.1v9.8h-4V9.9h3.8l4.6 7.5 4.6-7.5h3.8zm7.9 13.1h6.7v3.7h-10.6V9.9h10.4v3.7h-6.6v2.8h6V20h-6v3z"/><path fill="#909090" d="M107.8 37.2l-4.1 6.6v4.6h-.8v-4.6l-4.1-6.6h1l3.6 5.8 3.5-5.8h.9zm13.2 9.7c-1.1 1.1-2.5 1.7-4.1 1.7-1.6 0-3-.6-4.1-1.7-1.1-1.1-1.7-2.5-1.7-4.1 0-1.6.6-3 1.7-4.1 1.1-1.1 2.5-1.7 4.1-1.7 1.6 0 3 .6 4.1 1.7 1.1 1.1 1.7 2.5 1.7 4.1 0 1.6-.6 2.9-1.7 4.1zm-7.6-.6c1 1 2.1 1.4 3.5 1.4s2.5-.5 3.5-1.4c1-1 1.4-2.1 1.4-3.5s-.5-2.5-1.4-3.5c-1-1-2.1-1.4-3.5-1.4s-2.5.5-3.5 1.4c-1 1-1.4 2.1-1.4 3.5s.5 2.5 1.4 3.5zm21.5 1.2c-.8.7-1.7 1.1-3 1.1-1.2 0-2.2-.4-3-1.1s-1.1-1.7-1.1-2.8v-7.5h.8v7.5c0 .9.3 1.7.8 2.3.6.6 1.4.8 2.4.8s1.8-.3 2.4-.8c.6-.6.9-1.3.9-2.3v-7.5h.8v7.5c.1 1.1-.3 2.1-1 2.8zm14 .9l-2.7-4.6h-3.5v4.6h-.8V37.2h4.4c.9 0 1.7.3 2.3 1 .7.7 1 1.4 1 2.3 0 .8-.2 1.4-.7 2-.5.6-1.1 1-1.8 1.2l2.8 4.7h-1zM142.7 38v5h3.6c.7 0 1.3-.2 1.7-.7.5-.5.7-1.1.7-1.8s-.2-1.3-.7-1.8c-.5-.5-1.1-.7-1.7-.7h-3.6zm23 10.6c-1 0-1.9-.2-2.6-.7-.7-.5-1.2-1.1-1.5-1.9l.7-.4c.2.7.6 1.2 1.2 1.6s1.3.6 2.2.6c.9 0 1.6-.2 2.1-.6.5-.4.7-1 .7-1.6 0-.6-.2-1.1-.7-1.4-.5-.3-1.2-.7-2.2-1-.4-.1-.6-.2-.8-.3-.2-.1-.4-.1-.7-.3-.3-.1-.5-.2-.7-.3-.1-.1-.3-.2-.5-.4s-.4-.3-.5-.5l-.3-.6c-.1-.2-.1-.5-.1-.8 0-.9.3-1.6 1-2.2.6-.5 1.5-.8 2.4-.8.9 0 1.6.2 2.2.7.6.4 1.1 1 1.4 1.7l-.7.4c-.5-1.3-1.5-1.9-2.9-1.9-.8 0-1.4.2-1.8.6-.5.4-.7.9-.7 1.6 0 .6.2 1.1.6 1.4.4.3 1.1.6 2.1.9.6.2 1.1.4 1.4.5.3.1.7.3 1.1.6s.7.5.9.9c.2.3.3.8.3 1.2 0 .9-.3 1.7-1 2.2-.6.5-1.5.8-2.6.8zm9.7-1h5.3v.8h-6.1V37.2h.8v10.4zm18.7-.7c-1.1 1.1-2.5 1.7-4.1 1.7-1.6 0-3-.6-4.1-1.7-1.1-1.1-1.7-2.5-1.7-4.1 0-1.6.6-3 1.7-4.1 1.1-1.1 2.5-1.7 4.1-1.7 1.6 0 3 .6 4.1 1.7 1.1 1.1 1.7 2.5 1.7 4.1 0 1.6-.6 2.9-1.7 4.1zm-7.6-.6c1 1 2.1 1.4 3.5 1.4s2.5-.5 3.5-1.4 1.4-2.1 1.4-3.5-.5-2.5-1.4-3.5c-1-1-2.1-1.4-3.5-1.4s-2.5.5-3.5 1.4c-1 1-1.4 2.1-1.4 3.5s.5 2.5 1.4 3.5zm25.3-3.1v.4c0 1.4-.5 2.6-1.5 3.5-1 1-2.3 1.4-3.9 1.4-1.7 0-3.1-.6-4.2-1.7s-1.7-2.5-1.7-4.1c0-1.6.5-3 1.6-4.1 1.1-1.1 2.5-1.7 4.2-1.7 1 0 2 .2 2.8.7.9.5 1.5 1.1 2 2l-.8.4c-.4-.7-.9-1.3-1.7-1.7s-1.5-.6-2.4-.6c-1.5 0-2.6.5-3.6 1.4s-1.4 2.1-1.4 3.5.5 2.6 1.4 3.5c.9 1 2.1 1.4 3.6 1.4 1.3 0 2.4-.4 3.2-1.1s1.3-1.6 1.4-2.7H206v-.8h5.8zm12.5 5.2l-1.1-2.8h-5.6l-1.1 2.8h-.9l4.4-11.2h.9l4.3 11.2h-.9zm-6.4-3.7h5l-2.5-6.5-2.5 6.5zm19.4-7.5h.8v11.2h-.8l-6.6-9.6v9.6h-.7V37.2h.7l6.7 9.7v-9.7z"/></svg>