<svg xmlns="http://www.w3.org/2000/svg" width="300" height="64" viewBox="0 0 300 64"><path fill="#F9467E" d="M54.2 3.2c4.9 4.4-6.8 9.7-9.4 26.4-2.7 17-6 33.4-12.1 31.2-5.8-2.1 5.2-18.3-.5-20.8-6.5-2.8-17.7 17.9-23 13.1-5.4-4.9 15.7-18.2 14.3-25.4-1.1-5.4-19.1-8.6-17.3-13.8 2.1-6.1 21.5 7.3 28.7 3.5 7.6-4 15.5-17.5 19.3-14.2zM25.6 6.8c-.5 3.2 1.6 6.2 4.7 6.7 3.2.5 6.2-1.6 6.7-4.7.5-3.2-1.6-6.2-4.7-6.7-3.1-.6-6.1 1.6-6.7 4.7z"/><path fill="#737AFD" d="M70.6 17.4c7.3 3.8 26.6-9.5 28.7-3.5 1.8 5.2-16.2 8.4-17.3 13.8-1.4 7.1 19.7 20.5 14.3 25.4-5.3 4.8-16.4-15.9-23-13.1-5.7 2.5 5.3 18.7-.5 20.8-6.1 2.1-9.4-14.2-12.1-31.2-2.6-16.7-14.4-22-9.4-26.4C55.1-.1 63 13.4 70.6 17.4zm2.6-15.3c-3.2.5-5.3 3.6-4.7 6.7.5 3.2 3.6 5.3 6.7 4.7 3.2-.5 5.3-3.6 4.7-6.7s-3.6-5.3-6.7-4.7z"/><path fill="#FCAD0B" d="M35 28.2c1.9-4.3 6.8 2.8 17.2 2.6 13.3-.2 15.5-6.6 17.5-2.2 1.8 3.8-9.7 5.9-10.8 10-1.7 6.5 11 20.9 3.1 22.7-4.2 1-3.6-14.4-9-14.4s-4.9 17.8-11.6 14.7c-5-2.3 7.7-16.4 6-23-1.1-4.3-14.2-6.3-12.4-10.4zm17.6-7.8C50 20.4 48 22.5 48 25s2.1 4.6 4.6 4.6 4.6-2.1 4.6-4.6-2.1-4.6-4.6-4.6zM110.5 31.7h-6.1V8.8h13.5v5h-7.4v4.4h6.8v5h-6.8v8.5zm22.4 0l-1.2-2.3h-.1c-.8 1-1.7 1.7-2.5 2.1-.9.4-2 .6-3.3.6-1.7 0-3-.5-3.9-1.5-1-1-1.4-2.4-1.4-4.2 0-1.9.7-3.3 2-4.2s3.2-1.4 5.7-1.6l3-.1v-.3c0-1.5-.7-2.2-2.2-2.2-1.3 0-2.9.4-4.9 1.3l-1.8-4c2.1-1.1 4.7-1.6 7.8-1.6 2.3 0 4 .6 5.3 1.7 1.2 1.1 1.9 2.7 1.9 4.7v11.6h-4.4zm-4.6-4c.7 0 1.4-.2 1.9-.7.5-.5.8-1.1.8-1.8v-1.4l-1.4.1c-2 .1-3 .8-3 2.2 0 1 .6 1.6 1.7 1.6zm34.7 4V22c0-1.2-.2-2.1-.5-2.7-.3-.6-.8-.9-1.6-.9-.9 0-1.6.4-2.1 1.2-.4.8-.7 2.1-.7 3.8v8.3H152V22c0-1.2-.2-2.1-.5-2.7-.3-.6-.8-.9-1.5-.9-1 0-1.7.4-2.1 1.3-.4.9-.7 2.3-.7 4.2v7.8h-6.1V14h4.6l.8 2.2h.4c.5-.8 1.1-1.4 2-1.9.9-.4 1.9-.6 3-.6 2.6 0 4.3.8 5.4 2.3h.5c.5-.7 1.2-1.3 2.1-1.7.9-.4 1.9-.6 2.9-.6 2.1 0 3.6.5 4.6 1.6 1 1.1 1.5 2.7 1.5 4.9v11.5H163zm10.1-22.1c0-.9.3-1.6.8-2 .5-.4 1.3-.7 2.5-.7 1.1 0 2 .2 2.5.7.5.5.8 1.1.8 2 0 1.8-1.1 2.7-3.3 2.7-2.2-.1-3.3-1-3.3-2.7zm6.3 22.1h-6.1V14h6.1v17.7zm10.4 0h-6.1V7.3h6.1v24.4zm2.1-17.7h6.4l3 10.2c.1.5.2 1.2.3 1.9h.1c.1-.7.2-1.3.4-1.9l3.1-10.2h6.2l-7 18.8c-.9 2.4-2 4.1-3.3 5.1-1.3 1-3 1.5-5.1 1.5-.8 0-1.6-.1-2.5-.3v-4.8c.6.1 1.2.2 1.9.2.5 0 1-.1 1.4-.3.4-.2.8-.5 1.1-.9.3-.4.6-1 1-1.9l-7-17.4zm40.5-.4c-1.5 0-2.6.6-3.4 1.8-.8 1.2-1.2 2.9-1.2 5 0 4.4 1.7 6.6 5 6.6 1 0 2-.1 2.9-.4.9-.3 1.9-.6 2.9-1v5.2c-1.9.8-4.1 1.3-6.5 1.3-3.4 0-6.1-1-7.9-3-1.8-2-2.8-4.9-2.8-8.7 0-2.4.4-4.4 1.3-6.2.9-1.8 2.2-3.2 3.8-4.1 1.7-1 3.6-1.4 5.9-1.4 2.5 0 4.8.5 7.1 1.6l-1.9 4.9c-.8-.4-1.7-.7-2.5-1-.8-.5-1.8-.6-2.7-.6zm21.8 18.1l-1.2-2.3h-.1c-.8 1-1.7 1.7-2.5 2.1-.9.4-2 .6-3.3.6-1.7 0-3-.5-3.9-1.5-1-1-1.4-2.4-1.4-4.2 0-1.9.7-3.3 2-4.2s3.2-1.4 5.7-1.6l3-.1v-.3c0-1.5-.7-2.2-2.2-2.2-1.3 0-2.9.4-4.9 1.3l-1.8-4c2.1-1.1 4.7-1.6 7.8-1.6 2.3 0 4 .6 5.3 1.7 1.2 1.1 1.9 2.7 1.9 4.7v11.6h-4.4zm-4.6-4c.7 0 1.4-.2 1.9-.7.5-.5.8-1.1.8-1.8v-1.4l-1.4.1c-2 .1-3 .8-3 2.2 0 1 .6 1.6 1.7 1.6zm23.6-14.1c.5 0 1 0 1.5.1l.3.1-.5 5.8c-.5-.1-1.2-.2-2.1-.2-1.3 0-2.3.3-2.9.9-.6.6-.9 1.5-.9 2.6v8.7h-6.1V14h4.5l1 2.8h.3c.5-.9 1.2-1.7 2.1-2.3 1-.6 1.9-.9 2.8-.9zM286.1 32c-2.9 0-5.2-.8-6.9-2.4-1.6-1.6-2.4-3.8-2.4-6.7 0-3 .8-5.3 2.3-6.9 1.5-1.6 3.7-2.4 6.5-2.4 2.7 0 4.7.7 6.2 2.1s2.2 3.4 2.2 6v2.7h-11c0 1 .4 1.8 1.1 2.3.7.6 1.6.8 2.8.8 1.1 0 2.1-.1 3-.3.9-.2 1.9-.5 2.9-1v4.4c-1 .5-1.9.8-3 1-1.1.3-2.3.4-3.7.4zm-.3-14.2c-.7 0-1.3.2-1.8.7s-.8 1.2-.9 2.1h5.3c0-.9-.3-1.5-.7-2-.5-.5-1.2-.8-1.9-.8z"/><path fill="gray" d="M110.8 54.3c0 .9-.3 1.6-1 2.1s-1.5.8-2.7.8-2.1-.2-2.8-.5v-1.5c.5.2.9.4 1.5.5.5.1 1 .2 1.4.2.6 0 1.1-.1 1.4-.4.3-.2.5-.6.5-1s-.1-.7-.4-1-.9-.6-1.8-.9c-.9-.4-1.6-.8-1.9-1.3s-.6-1-.6-1.7c0-.8.3-1.5.9-2s1.4-.7 2.4-.7 1.9.2 2.9.6l-.5 1.3c-.9-.4-1.7-.6-2.4-.6-.5 0-.9.1-1.2.3s-.4.5-.4.9c0 .3.1.5.2.7s.3.4.5.5.7.4 1.4.6c.7.3 1.3.6 1.6.9s.6.6.8.9.2.9.2 1.3zm4.8 2.7V47h1.6v8.6h4.2V57h-5.8zm19.2-5c0 1.6-.4 2.9-1.2 3.8s-2 1.4-3.5 1.4-2.7-.4-3.5-1.3-1.2-2.2-1.2-3.8.4-2.9 1.2-3.8 2-1.3 3.5-1.3 2.6.4 3.4 1.3c.9.8 1.3 2.1 1.3 3.7zm-7.6 0c0 1.2.2 2.2.7 2.8.5.6 1.2 1 2.2 1 1 0 1.7-.3 2.2-.9s.7-1.6.7-2.8c0-1.2-.2-2.2-.7-2.8s-1.2-1-2.2-1c-1 0-1.7.3-2.2 1s-.7 1.5-.7 2.7zm16.7-.4h3.7v5c-.6.2-1.2.3-1.7.4s-1.2.1-1.8.1c-1.5 0-2.7-.4-3.5-1.3s-1.2-2.2-1.2-3.8c0-1.6.5-2.9 1.4-3.8.9-.9 2.2-1.4 3.8-1.4 1 0 2 .2 3 .6l-.6 1.4c-.8-.4-1.6-.6-2.4-.6-1.1 0-1.9.3-2.5 1-.6.7-.9 1.6-.9 2.7 0 1.2.3 2.1.8 2.8s1.4 1 2.4 1c.5 0 1.1-.1 1.7-.2V53H144v-1.4zm15 5.4l-1-2.8h-3.8l-1 2.8h-1.7l3.7-10h1.8l3.7 10h-1.7zm-1.4-4.2l-.9-2.7c-.1-.2-.2-.5-.3-.9-.1-.4-.2-.7-.3-.9-.1.6-.3 1.2-.5 1.8l-.9 2.6h2.9zm15.6 4.2h-2l-4.9-8h-.1v.4c.1.8.1 1.6.1 2.3V57h-1.5V47h2l4.9 7.9v-1.1V47h1.5v10zm22.5-5.4h3.7v5c-.6.2-1.2.3-1.7.4s-1.2.1-1.8.1c-1.5 0-2.7-.4-3.5-1.3S191 53.7 191 52c0-1.6.5-2.9 1.4-3.8.9-.9 2.2-1.4 3.8-1.4 1 0 2 .2 3 .6l-.6 1.4c-.8-.4-1.6-.6-2.4-.6-1.1 0-1.9.3-2.5 1-.6.7-.9 1.6-.9 2.7 0 1.2.3 2.1.8 2.8s1.4 1 2.4 1c.5 0 1.1-.1 1.7-.2V53h-2.1v-1.4zm17.7.4c0 1.6-.4 2.9-1.2 3.8s-2 1.4-3.5 1.4-2.7-.4-3.5-1.3-1.1-2.2-1.1-3.9.4-2.9 1.2-3.8 2-1.3 3.5-1.3 2.6.4 3.4 1.3c.8.9 1.2 2.2 1.2 3.8zm-7.6 0c0 1.2.2 2.2.7 2.8.5.6 1.2 1 2.2 1 1 0 1.7-.3 2.2-.9s.7-1.6.7-2.8c0-1.2-.2-2.2-.7-2.8s-1.2-1-2.2-1c-1 0-1.7.3-2.2 1s-.7 1.5-.7 2.7zm18.2 5h-5.7V47h5.7v1.4h-4v2.7h3.8v1.4h-3.8v3.1h4V57zm10.8-2.7c0 .9-.3 1.6-1 2.1s-1.5.8-2.7.8-2.1-.2-2.8-.5v-1.5c.5.2.9.4 1.5.5.5.1 1 .2 1.4.2.6 0 1.1-.1 1.4-.4.3-.2.5-.6.5-1s-.1-.7-.4-1-.9-.6-1.8-.9c-.9-.4-1.6-.8-1.9-1.3s-.6-1-.6-1.7c0-.8.3-1.5.9-2s1.4-.7 2.4-.7 1.9.2 2.9.6l-.5 1.3c-.9-.4-1.7-.6-2.4-.6-.5 0-.9.1-1.2.3s-.4.5-.4.9c0 .3.1.5.2.7s.3.4.5.5.7.4 1.4.6c.7.3 1.3.6 1.6.9s.6.6.8.9.2.9.2 1.3zm25.7 2.7h-1.6v-4.5h-4.6V57h-1.6V47h1.6v4.1h4.6V47h1.6v10zm11.1 0h-5.7V47h5.7v1.4h-4v2.7h3.8v1.4h-3.8v3.1h4V57zm6.6-4v4h-1.6V47h2.8c1.3 0 2.2.2 2.9.7s.9 1.2.9 2.2c0 1.2-.6 2.1-1.9 2.7L284 57h-1.9l-2.4-4h-1.6zm0-1.3h1.1c.8 0 1.3-.1 1.7-.4s.5-.7.5-1.3c0-.6-.2-1-.6-1.2s-.9-.4-1.7-.4H278v3.3zm15.8 5.3h-5.7V47h5.7v1.4h-4v2.7h3.8v1.4h-3.8v3.1h4V57z"/></svg>