<svg xmlns="http://www.w3.org/2000/svg" width="200" height="64" viewBox="0 0 200 64"><path fill="#202020" d="M19.9 62L6.7 48.8l25.4-25.4 2 2-23.3 23.4 9.1 9.1L45.8 32 19.9 6.1l-9.1 9.1 12.1 12.2-2 2L6.7 15.2 19.9 2l30 30zM74.9 30.3c-1.2 0-2.1-.2-2.8-.7s-1.1-1.1-1.4-1.9c-.3-.8-.4-1.7-.4-2.8v-5.8c0-1.1.1-2.1.4-2.9.3-.8.7-1.4 1.4-1.9s1.6-.7 2.8-.7c1.1 0 2 .2 2.6.6s1.1.9 1.3 1.6c.3.7.4 1.5.4 2.5v1.4h-2.8v-1.4c0-.5 0-.9-.1-1.2 0-.4-.2-.7-.4-.9s-.6-.3-1.1-.3c-.5 0-.9.1-1.1.3-.2.2-.4.5-.5.9s-.1.8-.1 1.3v7c0 .6 0 1.1.1 1.5.1.4.3.7.5.9.2.2.6.3 1 .3.5 0 .8-.1 1.1-.3.2-.2.3-.5.4-.9.1-.4.1-.8.1-1.3v-1.5h2.8v1.3c0 1-.1 1.8-.4 2.6-.3.7-.7 1.3-1.3 1.7-.5.4-1.4.6-2.5.6zm10.8 0c-1.1 0-2.1-.2-2.7-.6s-1.2-1-1.5-1.8-.4-1.7-.4-2.8V19c0-1.1.1-2 .4-2.8s.8-1.4 1.5-1.8 1.6-.6 2.7-.6c1.2 0 2.1.2 2.8.6s1.2 1 1.5 1.8c.3.8.5 1.7.5 2.8v6c0 1.1-.2 2-.5 2.8-.3.8-.8 1.4-1.5 1.8-.7.5-1.6.7-2.8.7zm0-2.2c.5 0 .9-.1 1.1-.3.2-.2.4-.5.5-.9.1-.4.1-.8.1-1.2v-7.5c0-.5 0-.9-.1-1.2-.1-.4-.2-.6-.5-.9-.2-.2-.6-.3-1.1-.3-.5 0-.8.1-1.1.3-.2.2-.4.5-.5.9-.1.4-.1.8-.1 1.2v7.5c0 .4 0 .8.1 1.2.1.4.2.7.5.9.3.2.7.3 1.1.3zm6.9 2l.3-16.2H96l2.3 11.2 2.4-11.2h3l.3 16.2h-2.2l-.2-11.3-2.3 11.3h-1.8L95 18.8l-.2 11.3h-2.2zm13.5 0V13.9h4.8c1 0 1.8.2 2.4.5.6.4 1.1.9 1.3 1.6s.4 1.5.4 2.5c0 1.1-.2 1.9-.5 2.5-.4.6-.9 1.1-1.5 1.4-.6.3-1.4.4-2.3.4h-1.6V30h-3zm3-9.3h1.1c.5 0 1-.1 1.3-.2.3-.2.5-.4.6-.7s.2-.8.2-1.4c0-.6 0-1.1-.1-1.4-.1-.4-.3-.6-.6-.8-.3-.2-.7-.3-1.4-.3h-1.1v4.8zm5.9 9.3l3.2-16.2h3.2l3.2 16.2h-2.7l-.6-3.7h-2.8l-.7 3.7H115zm3.7-5.6h2.2l-1.1-6.8-1.1 6.8zm7.5 5.6V13.9h2.1l3.9 9.2v-9.2h2.4v16.2h-2l-4-9.7v9.7h-2.4zm13.1 0v-6.2l-3.3-10h2.8l2 6.4 1.9-6.4h2.7l-3.2 10v6.2h-2.9zm12.3 0V13.9h2.1l3.9 9.2v-9.2h2.4v16.2h-2l-4-9.7v9.7h-2.4zm10.1 0l3.2-16.2h3.2l3.2 16.2h-2.7l-.6-3.7h-2.8l-.7 3.7h-2.8zm3.7-5.6h2.2l-1.1-6.8-1.1 6.8zm7.5 5.6l.3-16.2h3.1l2.3 11.2 2.4-11.2h3l.3 16.2H182l-.2-11.3-2.3 11.3h-1.8l-2.3-11.3-.2 11.3h-2.3zm13.6 0V13.9h6.8V16h-3.8v4.7h3v2.1h-3v5.4h3.9v2h-6.9zM76.6 50.1v-3.2l-2.2-6.5h.9l1.8 5.4 1.7-5.4h.9l-2.1 6.5v3.2h-1zm8.2.2c-.6 0-1.2-.1-1.5-.4-.4-.3-.6-.6-.8-1.1-.1-.5-.2-1-.2-1.6v-4c0-.6.1-1.1.2-1.5.2-.4.4-.8.8-1 .4-.2.9-.4 1.5-.4s1.1.1 1.5.4c.4.2.6.6.8 1 .2.4.2 1 .2 1.5v4c0 .6-.1 1.1-.2 1.5-.1.4-.4.8-.8 1.1-.4.3-.9.5-1.5.5zm0-.8c.4 0 .7-.1 1-.3.2-.2.4-.4.5-.7s.1-.7.1-1.1V43c0-.4 0-.8-.1-1.1s-.2-.5-.5-.7c-.2-.2-.5-.2-1-.2-.4 0-.8.1-1 .2-.2.2-.4.4-.5.7s-.1.7-.1 1.1v4.4c0 .4 0 .8.1 1.1s.2.5.5.7c.2.2.6.3 1 .3zm8.2.8c-.7 0-1.2-.1-1.5-.4-.4-.2-.6-.6-.8-1-.1-.4-.2-.9-.2-1.4v-7.1h.9v7.1c0 .4 0 .7.1 1s.2.6.5.7.6.3 1 .3.7-.1 1-.3c.2-.2.4-.4.5-.7.1-.3.1-.6.1-1v-7.1h.9v7.1c0 .5-.1 1-.2 1.4-.1.4-.4.7-.8 1-.4.2-.9.4-1.5.4zm5.8-.2v-9.7h2.2c.6 0 1.1.1 1.4.3.3.2.6.5.8.9.2.4.2.8.2 1.3 0 .4 0 .7-.1 1s-.2.6-.4.8c-.2.2-.5.4-.8.4l1.5 5h-.9l-1.4-4.8h-1.5v4.8h-1zm.9-5.4h1.2c.4 0 .7-.1.9-.2.2-.1.4-.3.5-.6.1-.3.1-.6.1-1 0-.6-.1-1-.3-1.3-.2-.3-.6-.4-1.2-.4h-1.3v3.5zm12.5 5.4v-9h-1.8v-.7h4.5v.7h-1.8v9h-.9zm4.8 0l2.1-9.7h1l2.1 9.7h-.9l-.5-2.6h-2.3l-.5 2.6h-1zm1.5-3.2h2.1l-1-5.2-1.1 5.2zm8.7 3.4c-.6 0-1.1-.1-1.4-.4s-.6-.6-.7-1.1-.2-1-.2-1.6v-3.8c0-.6.1-1.2.2-1.6s.4-.8.7-1.1.9-.4 1.5-.4 1 .1 1.4.3c.3.2.6.5.7.9.2.4.2.9.2 1.5v.3h-.9V43c0-.5 0-.8-.1-1.2-.1-.3-.2-.5-.4-.7-.2-.2-.5-.2-.9-.2s-.8.1-1 .3c-.2.2-.4.5-.4.8s-.1.7-.1 1.2v4c0 .5 0 .9.1 1.2s.2.6.5.8c.2.2.5.3 1 .3.4 0 .7-.1.9-.3.2-.2.4-.4.5-.8s.1-.7.1-1.2v-1.1h-1.4v-.7h2.3v4.7h-.6L129 49c-.1.4-.3.7-.6.9-.3.3-.7.4-1.2.4zm5.8-.2v-9.7h.9v9h2.8v.7H133zm6.5 0v-9.7h.9v9.7h-.9zm4.4 0v-9.7h.7l3.1 7.5v-7.5h.8v9.7h-.6l-3.1-7.6v7.6h-.9zm8 0v-9.7h3.5v.7h-2.6v3.6h2.1v.7h-2.1v4h2.6v.7h-3.5zm10.8 0v-9.7h.9v4.3h3.1v-4.3h.9v9.7h-.9v-4.7h-3.1v4.7h-.9zm8.4 0v-9.7h3.5v.7H172v3.6h2.1v.7H172v4h2.6v.7h-3.5zm6.6 0v-9.7h2.2c.6 0 1.1.1 1.4.3s.6.5.8.9c.2.4.2.8.2 1.3 0 .4 0 .7-.1 1s-.2.6-.4.8c-.2.2-.5.4-.8.4l1.5 5h-.9l-1.4-4.8h-1.5v4.8h-1zm.9-5.4h1.2c.4 0 .7-.1.9-.2.2-.1.4-.3.5-.6.1-.3.1-.6.1-1 0-.6-.1-1-.3-1.3-.2-.3-.6-.4-1.2-.4h-1.3v3.5zm7.1 5.4v-9.7h3.5v.7h-2.6v3.6h2.1v.7h-2.1v4h2.6v.7h-3.5z"/></svg>