<svg xmlns="http://www.w3.org/2000/svg" width="240" height="64" viewBox="0 0 240 64"><path fill="#9DB4C0" d="M26 15c-1.1-.8-2.1-1.6-3-2.4-.4-.4-.9-.7-1.2-1.1C22.9 9.9 24 8.2 26 6.4c2-.4 4.2-.9 7.4-1.3.3.2.5.5.9.7.6.5 1.3 1.1 2.1 1.7-1 1.2-2 2.5-3.1 4.8-2.7 1-4.7 1.7-7.3 2.7z"/><path fill="#5C6B73" d="M16.3 27.2c-1.2-.9-2.4-1.9-3.5-2.8-.5-.4-1-.9-1.4-1.3.6-2.3 1.2-4.7 2.5-7.6 1.8-.9 3.7-2 6.8-3.2.4.4.8.7 1.3 1.1 1 .8 2 1.6 3.1 2.5-.6 2-1.3 4-1.9 7.3-2.3 1.3-4.5 2.4-6.9 4zM10.5 41c-1.1-.9-2.2-1.7-3.2-2.6-.5-.4-.9-.8-1.3-1.1-.2-2.4-.4-4.8-.2-8.1 1.1-1.3 2.4-2.8 4.8-4.6.4.4.9.8 1.4 1.3 1.1.9 2.2 1.8 3.5 2.8-.2 2.3-.4 4.8-.3 8.4-1.6 1.1-3.2 2.3-4.7 3.9z"/><path fill="#C2DFE3" d="M59.8 35.5C61 34.7 62 33.8 63 33c.5-.4.9-.8 1.3-1.2.2-2.4.4-4.8.2-8.1-1.1-1.3-2.4-2.8-4.8-4.6-.4.4-.9.8-1.4 1.3-1.1.9-2.2 1.8-3.5 2.8.2 2.3.4 4.8.3 8.4 1.6 1.2 3.2 2.3 4.7 3.9z"/><path fill="#9DB4C0" d="M10 52.6c-.8-.6-1.5-1.2-2.2-1.8-.3-.3-.6-.5-.9-.8-.9-1.9-1.8-4-2.6-6.9.3-1.8.5-2.7 1.6-4.6.4.4.8.7 1.3 1.1 1 .8 2 1.7 3.1 2.5.4 2 .8 4.3 1.6 7.2-.8 1-1.6 2-1.9 3.3zM44.9 26.6c-2-1-4.1-2.1-6.1-3.3.1-2.3.3-4.4.7-6.9 1.9-1 3.6-2 5.5-3.2 1.4.8 2.8 1.5 4.2 2.3.2 1.9.3 3.4.7 6.6-1.3 1.3-2.6 2.6-5 4.5z"/><path fill="#5C6B73" d="M38 40.6c-2.3-1.2-4.7-2.5-7-3.8.1-2.9.1-5.3.3-8.2 3.1-1.8 4.7-2.8 6.8-4 2.1 1.2 4.1 2.3 6.2 3.4.1 2.7.3 5.3.4 8-1.8 1.3-3.6 2.6-6.7 4.6zM30.4 53.2c-2.1-1.1-4.3-2.3-6.4-3.5-.2-2.8-.3-4.7-.4-7.4 5.2-3.2 5.2-3.2 6.7-4.1 2.3 1.3 4.7 2.6 7 3.8 0 5.2-.1 6.1-.1 7.7-2.1 1.1-3.8 2.1-6.8 3.5z"/><path fill="#9DB4C0" d="M24 61.2l-4.5-2.4c-.5-2.6-.7-3.7-1-5.1 1.4-.8 2.4-1.5 5-2.9 2.1 1.2 4.2 2.3 6.3 3.4 0 1.9-.1 3.6-.3 5.4-4.3 1.4-5.5 1.6-5.5 1.6z"/><path fill="#C2DFE3" d="M59.5 57.4c1.3-.9 2.6-1.9 3.9-2.9.6-2.5.9-3.6 1.2-4.9-1.1-.6-1.9-1-4-1.9-1.8 1.4-3.7 2.8-5.5 4.1-.1 1.7-.2 3.3-.1 5 3.5.5 4.5.6 4.5.6z"/><path fill="#5C6B73" d="M30.7 27.3c-2.1-1.3-4.2-2.7-6.2-4 .4-2.2.9-4.5 1.8-7.2 2.5-1 3.7-1.5 7.2-2.8 1.5 1.1 3.2 2.1 4.9 3.2-.3 1.8-.6 3.7-.8 6.9-2.8 1.6-3.2 1.8-6.9 3.9z"/><path fill="#9DB4C0" d="M13.9 14.5c-1-1.1-1.7-2-2.1-2.8 1.7-2.2 2.7-3.5 5.1-5.4 1.7-.7 3.6-1.5 6.6-2.2.3.6.9 1.4 1.7 2.2-2 1.7-3 2.7-4.5 5.1-2.1.9-4.3 1.7-6.8 3.1z"/><path fill="#C2DFE3" d="M60.2 12.4c1-1.1 1.7-2 2.1-2.8-1.7-2.2-2.7-3.5-5.1-5.4-1.7-.7-3.6-1.5-6.6-2.2-.3.6-.9 1.4-1.7 2.2 1.8 1.7 2.8 2.7 4.4 5.1 2.2.9 4.4 1.7 6.9 3.1z"/><path fill="#253237" d="M22.8 41c-2.2-1.4-4.3-2.7-6.3-4.1 0-2.7 0-5 .3-8.4 2-1.2 3.7-2.3 6.9-4 2 1.4 4.1 2.7 6.2 4.1-.1 2.5-.3 4.4-.3 8.3-2.3 1.3-4.5 2.7-6.8 4.1z"/><path fill="#9DB4C0" d="M5.5 27.9c-1-1.1-1.7-2-2.2-2.9.6-2.3 1.1-4.6 2.6-7.6 1.2-1.4 2.5-2.9 4.8-4.6.4.8 1.1 1.8 2.1 2.8-.9 2.1-1.8 4.2-2.5 7.6-1.5 1.3-3.2 2.7-4.8 4.7z"/><path fill="#5C6B73" d="M17.8 52.7c-1.8-1.1-3.5-2.2-5.1-3.3-.5-2.1-1-4.2-1.5-7.2 1.2-1.1 2.4-2.2 4.8-4 2 1.4 4.1 2.7 6.3 4.1.1 2.5.2 4 .5 7.4-1.9 1-3.5 1.9-5 3z"/><path fill="#9DB4C0" d="M3.8 42c-.8-.9-1.4-1.7-1.8-2.3-.4-2.2-.7-4.5-.7-7.6.3-1.7.6-3.4 1.6-5.7.4.8 1.1 1.8 2.1 2.8 0 2.3-.1 4.8.3 8.1-.6 1.4-1.3 2.8-1.5 4.7zM45.3 52.5c-2.1-.8-4.3-1.8-6.6-2.9 0-1.8.1-4.3.1-7.8 2.2-1.5 4.3-2.9 6.7-4.8 2.2 1 4.4 2 6.5 2.8.1 2.5.3 4.9.1 7.8-1.7 1.5-3.7 3.1-6.8 4.9zM36.1 62c-1.7-.7-3.5-1.5-5.4-2.3.2-1.4.4-2.8.4-5.5 2.2-1 4.2-2 6.8-3.4 2.2 1.1 4.5 2 6.6 2.9-.3 1.9-.6 3.8-1.3 5.8-5.3 2.1-7.1 2.5-7.1 2.5z"/><path fill="#253237" d="M72.6 22.2c0-.9.2-1.8.5-2.7.3-.9.8-1.7 1.4-2.4s1.4-1.2 2.3-1.7c.9-.4 1.9-.6 3.1-.6 1.4 0 2.5.3 3.5.9s1.7 1.4 2.2 2.3l-2.2 1.5c-.2-.4-.4-.8-.7-1-.3-.3-.6-.5-.9-.7-.3-.2-.6-.3-1-.4-.3-.1-.7-.1-1-.1-.7 0-1.3.1-1.9.4-.5.3-1 .7-1.3 1.1s-.6 1-.8 1.6c-.2.6-.3 1.2-.3 1.8 0 .6.1 1.3.3 1.9.2.6.5 1.1.9 1.6s.8.8 1.4 1.1c.5.3 1.1.4 1.8.4.3 0 .7 0 1-.1.4-.1.7-.2 1-.4.3-.2.6-.4.9-.7.3-.3.5-.6.7-1l2.3 1.3c-.2.6-.6 1-1 1.5-.4.4-.9.8-1.5 1.1-.5.3-1.1.5-1.8.7-.6.2-1.2.2-1.8.2-1.1 0-2-.2-2.9-.7-.9-.4-1.6-1-2.2-1.7-.6-.7-1.1-1.5-1.5-2.4-.3-.9-.5-1.8-.5-2.8zm21.3 7.6c-1.1 0-2.1-.2-2.9-.6-.9-.4-1.6-1-2.3-1.7-.6-.7-1.1-1.5-1.5-2.4-.3-.9-.5-1.8-.5-2.8 0-1 .2-1.9.5-2.8.4-.9.9-1.7 1.5-2.4s1.4-1.2 2.3-1.6c.9-.4 1.8-.6 2.9-.6 1.1 0 2 .2 2.9.7.9.4 1.6 1 2.2 1.7.6.7 1.1 1.5 1.5 2.4.3.9.5 1.8.5 2.7 0 1-.2 1.9-.5 2.8-.4.9-.9 1.7-1.5 2.4s-1.4 1.2-2.3 1.6c-.8.4-1.8.6-2.8.6zm-4.3-7.5c0 .6.1 1.3.3 1.8.2.6.5 1.1.8 1.6.4.5.8.8 1.3 1.1.5.3 1.1.4 1.8.4s1.3-.1 1.8-.4c.5-.3 1-.7 1.3-1.1.4-.5.6-1 .8-1.6.2-.6.3-1.2.3-1.8 0-.6-.1-1.3-.3-1.8s-.5-1.1-.8-1.6c-.4-.5-.8-.8-1.3-1.1-.5-.3-1.1-.4-1.8-.4s-1.3.1-1.8.4c-.5.3-1 .7-1.3 1.1-.4.5-.6 1-.8 1.6-.2.6-.3 1.2-.3 1.8zm25.6 7.4V20l-3.8 7.3h-1.6L106 20v9.7h-2.9V15h3.1l4.4 8.4L115 15h3v14.7h-2.8zm6 0V15h6.2c.7 0 1.3.1 1.9.4s1.1.7 1.5 1.1.7 1 1 1.6c.2.6.4 1.2.4 1.8 0 .6-.1 1.2-.3 1.8s-.5 1.1-.9 1.6-.9.8-1.5 1.1c-.6.3-1.2.4-1.9.4H124v4.9h-2.8zm2.8-7.5h3.3c.5 0 1-.2 1.3-.6.4-.4.5-1 .5-1.7 0-.4-.1-.7-.2-1-.1-.3-.3-.5-.4-.8-.2-.2-.4-.4-.6-.5-.2-.1-.5-.2-.7-.2H124v4.8zm13.3-7.2h2.5l5.6 14.7h-2.9l-1.4-3.7H136l-1.3 3.7h-2.9l5.5-14.7zm3.3 9l-2-5.8-2.1 5.8h4.1zm9.3-3.7v9.4H147V15h2.2l7.7 9.7V15h2.9v14.7h-2.3l-7.6-9.4zm14.6-5.3l3.6 7.1 3.7-7.1h3.1l-5.3 9.6v5.1h-2.8v-5.2l-5.3-9.5h3zm19.2 5.3v9.4h-2.9V15h2.2l7.7 9.7V15h2.9v14.7h-2.3l-7.6-9.4zm17.1-5.3h2.5l5.6 14.7H206l-1.4-3.7h-5.1l-1.3 3.7h-2.9l5.5-14.7zm3.3 9l-2-5.8L200 24h4.1zm18.4 5.7V20l-3.8 7.3h-1.6l-3.8-7.3v9.7h-2.9V15h3.1l4.4 8.4 4.4-8.4h3v14.7h-2.8zm16.2-2.5v2.5h-10.2V15h10v2.5h-7.2V21h6.2v2.3h-6.2v3.8h7.4z"/><path fill="#5C6B73" d="M84 40.2l2.9 4.7 2.9-4.7h.9l-3.4 5.5V49h-.9v-3.3L83 40.2h1zm12.5 8.9c-.6 0-1.2-.1-1.7-.4s-.9-.6-1.3-1-.6-.9-.8-1.4c-.2-.5-.3-1.1-.3-1.7 0-.6.1-1.2.3-1.7.2-.5.5-1 .9-1.4.4-.4.8-.7 1.3-1 .5-.2 1.1-.4 1.6-.4.6 0 1.2.1 1.7.4.5.3.9.6 1.3 1s.6.9.8 1.4c.2.5.3 1.1.3 1.6 0 .6-.1 1.2-.3 1.7-.2.5-.5 1-.9 1.4-.4.4-.8.7-1.3 1-.5.4-1 .5-1.6.5zm-3.3-4.5c0 .5.1.9.2 1.4.2.4.4.8.7 1.2.3.3.6.6 1 .8.4.2.8.3 1.3.3s.9-.1 1.4-.3c.4-.2.8-.5 1-.8.3-.3.5-.7.7-1.2.2-.4.2-.9.2-1.3 0-.5-.1-.9-.2-1.4-.2-.4-.4-.8-.7-1.2-.3-.3-.6-.6-1-.8-.4-.2-.8-.3-1.3-.3s-.9.1-1.4.3c-.4.2-.8.5-1 .8-.3.3-.5.7-.7 1.2-.1.4-.2.9-.2 1.3zm14.1 3.7c.6 0 1-.1 1.4-.3.4-.2.7-.5.9-.8.2-.3.4-.7.5-1.2.1-.4.1-.9.1-1.3v-4.5h.9v4.5c0 .6-.1 1.2-.2 1.7s-.3 1-.6 1.4c-.3.4-.7.7-1.2 1-.5.2-1 .4-1.7.4s-1.3-.1-1.8-.4-.9-.6-1.2-1c-.3-.4-.5-.9-.6-1.4-.1-.5-.2-1.1-.2-1.6v-4.5h.9v4.5c0 .5 0 .9.1 1.4.1.4.2.8.5 1.2.2.3.5.6.9.8.3 0 .8.1 1.3.1zm7.3.8v-8.8h3.7c.4 0 .7.1 1.1.2.3.2.6.4.8.6.2.3.4.6.5.9.1.3.2.7.2 1 0 .3 0 .6-.1.9-.1.3-.2.6-.4.8l-.6.6c-.2.2-.5.3-.8.3l2.2 3.4h-1l-2.1-3.3h-2.6V49h-.9zm.9-4.1h2.9c.3 0 .5-.1.7-.2.2-.1.4-.3.5-.5.2-.2.3-.4.3-.6s.1-.5.1-.8c0-.3 0-.5-.1-.8-.1-.2-.2-.5-.4-.6-.2-.2-.4-.3-.6-.4-.2-.1-.4-.2-.7-.2h-2.8V45zm18.6-3.1c-.2-.3-.6-.5-1-.7-.4-.2-.9-.3-1.4-.3-.8 0-1.3.1-1.7.4s-.5.7-.5 1.2c0 .3 0 .5.1.7.1.2.2.3.4.4.2.1.5.2.8.3.3.1.7.2 1.1.3.5.1.9.2 1.3.3.4.1.7.3 1 .5.3.2.5.4.6.7s.2.6.2 1-.1.8-.2 1.1c-.2.3-.4.5-.7.7-.3.2-.6.3-1 .4-.4.1-.8.1-1.3.1-1.4 0-2.5-.4-3.5-1.3l.4-.7c.2.2.3.3.6.5.2.1.5.3.7.4l.9.3c.3.1.6.1 1 .1.7 0 1.3-.1 1.6-.4.4-.3.6-.6.6-1.1 0-.3-.1-.5-.2-.7-.1-.2-.3-.3-.5-.5-.2-.1-.5-.3-.8-.4-.3-.1-.7-.2-1.2-.3-.5-.1-.9-.2-1.2-.3-.3-.1-.6-.3-.9-.4-.2-.2-.4-.4-.5-.6-.1-.2-.2-.5-.2-.9s.1-.8.2-1.1c.2-.3.4-.6.7-.8s.6-.4 1-.5.8-.2 1.3-.2c.6 0 1.1.1 1.6.3.5.2.9.4 1.3.8l-.6.7zm3.9 7.2v-8.8h.9v8.1h5.1v.8h-6zm11.7 0c-.6 0-1.2-.1-1.7-.4s-.9-.6-1.3-1-.6-.9-.8-1.4c-.2-.5-.3-1.1-.3-1.7 0-.6.1-1.2.3-1.7.2-.5.5-1 .9-1.4s.8-.7 1.3-1c.5-.2 1.1-.4 1.6-.4.6 0 1.2.1 1.7.4.5.3.9.6 1.3 1s.6.9.8 1.4c.2.5.3 1.1.3 1.6 0 .6-.1 1.2-.3 1.7-.2.5-.5 1-.9 1.4-.4.4-.8.7-1.3 1-.5.4-1 .5-1.6.5zm-3.3-4.5c0 .5.1.9.2 1.4.2.4.4.8.7 1.2.3.3.6.6 1 .8.4.2.8.3 1.3.3s.9-.1 1.4-.3.8-.5 1-.8c.3-.3.5-.7.7-1.2.2-.4.2-.9.2-1.3 0-.5-.1-.9-.2-1.4-.2-.4-.4-.8-.7-1.2-.3-.3-.6-.6-1-.8-.4-.2-.8-.3-1.3-.3s-.9.1-1.4.3c-.4.2-.8.5-1 .8-.3.3-.5.7-.7 1.2-.1.4-.2.9-.2 1.3zm16.9 3.2c-.8.9-1.8 1.4-2.8 1.4-.6 0-1.1-.1-1.6-.4-.5-.3-.9-.6-1.3-1s-.7-.9-.9-1.4c-.2-.5-.3-1.1-.3-1.6 0-.6.1-1.2.3-1.7.2-.5.5-1 .9-1.4.4-.4.8-.7 1.3-1 .5-.2 1-.4 1.6-.4.4 0 .8 0 1.2.1.4.1.7.2 1 .4.3.2.5.4.7.6s.4.5.5.8l-.7.4c-.3-.5-.7-.9-1.1-1.2-.5-.3-1-.4-1.6-.4-.5 0-.9.1-1.3.3-.4.2-.7.5-1 .8-.3.3-.5.7-.6 1.2-.1.4-.2.9-.2 1.4 0 .5.1 1 .3 1.4.2.4.4.8.7 1.2.3.3.6.6 1.1.8.4.2.8.3 1.3.3s1-.1 1.4-.4c.5-.2.9-.6 1.3-1.1v-1.5h-2v-.7h2.7V49h-.7v-1.2zm6.8-7.6h.7l3.7 8.8h-.9l-1.1-2.8h-4l-1.1 2.8h-.9l3.6-8.8zm2.1 5.4l-1.8-4.4-1.8 4.4h3.6zm5.9-3.8V49h-.9v-8.8h.7l5.8 7.3v-7.3h.9V49h-.8l-5.7-7.2zm21.9-1.6V49h-.9v-4.1h-5.2V49h-.9v-8.8h.9v3.9h5.2v-3.9h.9zm9.6 8.1v.8h-5.9v-8.8h5.8v.7h-4.9v3.2h4.3v.7h-4.3v3.4h5zm3.1.8v-8.8h3.7c.4 0 .7.1 1 .2.3.2.6.4.8.6.2.3.4.6.5.9.1.3.2.7.2 1 0 .3 0 .6-.1.9-.1.3-.2.6-.4.8l-.6.6c-.2.2-.5.3-.8.3l2.2 3.4h-1l-2.1-3.3h-2.6V49h-.8zm.9-4.1h2.9c.3 0 .5-.1.7-.2.2-.1.4-.3.5-.5.1-.2.3-.4.3-.6s.1-.5.1-.8c0-.3 0-.5-.1-.8-.1-.2-.2-.5-.4-.6-.2-.2-.4-.3-.6-.4-.2-.1-.5-.2-.7-.2h-2.8V45zm14.7 3.3v.8h-5.9v-8.8h5.8v.7h-4.9v3.2h4.3v.7h-4.3v3.4h5z"/></svg>