<svg xmlns="http://www.w3.org/2000/svg" width="280" height="64" viewBox="0 0 280 64"><linearGradient id="a" gradientUnits="userSpaceOnUse" x1="35.4106" y1="3.8115" x2="39.977" y2="48.7667"><stop offset="0" stop-color="#fcee21"/><stop offset="1" stop-color="#f7931e"/></linearGradient><path fill-rule="evenodd" clip-rule="evenodd" fill="url(#a)" d="M23.2 5.8c-3.2.8-6.7 2-8.3 4.9-1.7 3-.9 6.8.3 10.1 3.5 9.7 9.5 18.5 17.3 25.2 1.8 1.6 4 3.1 6.3 2.8 2.3-.3 4.1-2.2 5.5-4 5.2-6.4 9.5-13.6 12.8-21.2 1.4-3.2 2.6-6.7 1.8-10.1-.7-2.8-2.9-5.2-5.5-6.6C44.7 2 32.6 3.6 23.2 5.8z"/><linearGradient id="b" gradientUnits="userSpaceOnUse" x1="27.7139" y1="26.2329" x2="65.982" y2="41.8498"><stop offset="0" stop-color="#ed1e79"/><stop offset="1" stop-color="#9e005d"/></linearGradient><path fill-rule="evenodd" clip-rule="evenodd" fill="url(#b)" d="M68.2 26.1c-1.4-2.2-3.8-3.5-6.2-4.7-5.6-2.6-11.5-4.4-17.6-5.4-2.8-.4-5.6-.3-8.4.1-3.7.5-6.1 2.7-5.9 5.6.7 9.2 8.5 23.2 14 28.8 2.1 2.1 4.6 4.1 7.7 3.2 2.6-.8 6.8-4.9 8.7-6.8 3.3-3.3 7-7.9 8.4-12.4.9-2.7.9-5.9-.7-8.4z"/><linearGradient id="c" gradientUnits="userSpaceOnUse" x1="43.1831" y1="23.7085" x2="12.1457" y2="49.752"><stop offset="0" stop-color="#9cd6a1"/><stop offset=".01222801" stop-color="#9ad49f"/><stop offset=".3594" stop-color="#58ab69"/><stop offset=".6513" stop-color="#288d42"/><stop offset=".8736" stop-color="#0b7a2a"/><stop offset="1" stop-color="#007321"/></linearGradient><path fill-rule="evenodd" clip-rule="evenodd" fill="url(#c)" d="M44.8 26.4c-1.3-.6-2.7-.8-4.2-.9-8.4-.9-17-.5-25.3 1-1.9.4-3.8.8-5.5 1.7-1.7.9-3.2 2.3-3.9 4.1-1 2.7 0 5.7 1.3 8.3 2.5 5.4 5.9 10.5 9.9 14.9 2.2 2.4 5 4.8 8.3 4.7 2.8-.1 5.1-2 7.1-3.9 5.5-5.2 10.2-11.2 14-17.7.8-1.4 1.6-2.8 1.9-4.4.5-2.7-.9-6.5-3.6-7.8z"/><path fill="#404040" d="M74.5 21.6c0-1.1.2-2.1.6-3.2.4-1.1 1-2 1.7-2.8s1.7-1.5 2.7-2c1.1-.5 2.3-.8 3.7-.8 1.6 0 3 .4 4.2 1.1 1.2.7 2.1 1.6 2.7 2.8l-2.6 1.8c-.2-.5-.5-.9-.8-1.3-.3-.3-.7-.6-1.1-.8s-.8-.3-1.2-.4c-.4-.1-.8-.1-1.2-.1-.9 0-1.6.2-2.3.5-.6.3-1.2.8-1.6 1.4-.4.6-.7 1.2-1 1.9-.2.6-.3 1.3-.3 2 0 .8.1 1.5.4 2.3.3.7.6 1.4 1.1 1.9.5.5 1 1 1.6 1.3.6.3 1.3.5 2.1.5.4 0 .8 0 1.2-.1s.8-.3 1.2-.5c.4-.2.8-.5 1.1-.8.3-.3.6-.8.8-1.2l2.8 1.6c-.3.7-.7 1.3-1.2 1.8s-1.1.9-1.8 1.3c-.7.3-1.4.6-2.1.8-.8.2-1.5.3-2.2.3-1.3 0-2.4-.3-3.5-.8s-2-1.2-2.7-2.1c-.8-.9-1.3-1.8-1.8-2.9-.3-1.2-.5-2.3-.5-3.5zm25.6 9.1c-1.3 0-2.5-.3-3.5-.8-1.1-.5-2-1.2-2.7-2s-1.3-1.8-1.8-2.9c-.4-1.1-.6-2.2-.6-3.3 0-1.2.2-2.3.7-3.4.4-1.1 1-2 1.8-2.9s1.7-1.5 2.8-2c1.1-.5 2.2-.7 3.5-.7 1.3 0 2.4.3 3.5.8s2 1.2 2.7 2.1c.7.8 1.3 1.8 1.7 2.9.4 1.1.6 2.2.6 3.3 0 1.2-.2 2.3-.6 3.4s-1 2-1.8 2.8c-.8.8-1.7 1.5-2.7 2-1.2.5-2.4.7-3.6.7zm-5.2-8.9c0 .8.1 1.5.3 2.2.2.7.6 1.3 1 1.9s1 1 1.6 1.3 1.4.5 2.2.5c.8 0 1.6-.2 2.2-.5.6-.3 1.2-.8 1.6-1.4.4-.6.8-1.2 1-1.9s.3-1.4.3-2.2c0-.8-.1-1.5-.4-2.2-.2-.7-.6-1.3-1-1.9s-1-1-1.6-1.3c-.6-.3-1.4-.5-2.2-.5-.8 0-1.6.2-2.2.5-.6.3-1.2.8-1.6 1.3-.4.6-.8 1.2-1 1.9s-.2 1.5-.2 2.3zm30.9 8.8V18.9l-4.6 8.7h-1.9l-4.6-8.7v11.7h-3.4V12.9h3.7l5.2 10.1 5.3-10.1h3.7v17.7h-3.4zm7.2 0V12.9h7.5c.8 0 1.6.2 2.3.5s1.3.8 1.8 1.3.9 1.2 1.2 1.9c.3.7.4 1.4.4 2.1 0 .7-.1 1.5-.4 2.2-.3.7-.6 1.3-1.1 1.9-.5.5-1.1 1-1.7 1.3s-1.4.5-2.2.5h-4.2v5.9H133zm3.4-8.9h4c.6 0 1.2-.3 1.6-.8.4-.5.6-1.2.6-2.1 0-.5-.1-.9-.2-1.2-.1-.4-.3-.7-.5-.9-.2-.3-.5-.4-.8-.6-.3-.1-.6-.2-.9-.2h-3.8v5.8zm16-8.8h3l6.7 17.7h-3.5l-1.6-4.4h-6.2l-1.6 4.4h-3.5l6.7-17.7zm4 10.9l-2.4-7-2.5 7h4.9zm11.2-4.5v11.4h-3.4V12.9h2.7l9.2 11.6V12.9h3.4v17.7h-2.8l-9.1-11.3zm17.6-6.4l4.4 8.5 4.4-8.5h3.7l-6.4 11.5v6.2h-3.4v-6.2l-6.4-11.5h3.7zm23 6.4v11.4h-3.4V12.9h2.7l9.2 11.6V12.9h3.4v17.7h-2.8l-9.1-11.3zm20.7-6.4h3l6.7 17.7h-3.5l-1.6-4.4h-6.2l-1.6 4.4h-3.5l6.7-17.7zm4 10.9l-2.4-7-2.5 7h4.9zm22.2 6.8V18.9l-4.6 8.7h-1.9l-4.6-8.7v11.7h-3.4V12.9h3.7l5.2 10.1 5.3-10.1h3.7v17.7h-3.4zm19.4-3v3h-12.3V12.9h12.1v3h-8.6v4.3h7.5V23h-7.5v4.6h8.8z"/><path fill="gray" d="M75.6 40.8l3.4 5.5 3.4-5.5h1.1l-4 6.5v3.8h-1v-3.9l-4-6.4h1.1zm16.6 10.4c-.7 0-1.4-.1-2-.4-.6-.3-1.1-.7-1.5-1.2-.4-.5-.8-1-1-1.7-.2-.6-.3-1.3-.3-1.9 0-.7.1-1.3.4-2 .2-.6.6-1.2 1-1.7s.9-.9 1.5-1.2c.6-.3 1.2-.4 1.9-.4s1.4.2 2 .5c.6.3 1.1.7 1.5 1.2.4.5.7 1.1 1 1.7.2.6.3 1.3.3 1.9 0 .7-.1 1.3-.4 2-.2.6-.6 1.2-1 1.7s-.9.9-1.5 1.1c-.5.3-1.2.4-1.9.4zM88.4 46c0 .6.1 1.1.3 1.6.2.5.4 1 .8 1.4.3.4.7.7 1.2 1 .5.2 1 .4 1.6.4.6 0 1.1-.1 1.6-.4s.9-.6 1.2-1c.3-.4.6-.9.8-1.4.1-.6.1-1.1.1-1.6 0-.6-.1-1.1-.3-1.6-.2-.5-.5-1-.8-1.4-.3-.4-.7-.7-1.2-1-.5-.2-1-.4-1.5-.4-.6 0-1.1.1-1.6.4-.5.2-.9.6-1.2 1-.3.4-.6.9-.8 1.4-.1.5-.2 1.1-.2 1.6zm18.5 4.3c.6 0 1.2-.1 1.6-.4.4-.2.8-.6 1-1s.4-.9.5-1.4c.1-.5.2-1 .2-1.6v-5.2h1V46c0 .7-.1 1.4-.2 2-.2.6-.4 1.2-.7 1.6-.3.5-.8.9-1.3 1.1-.6.3-1.2.4-2 .4s-1.5-.1-2.1-.4c-.6-.3-1-.7-1.3-1.2-.3-.5-.6-1-.7-1.7-.1-.6-.2-1.3-.2-1.9v-5.2h1V46c0 .5.1 1.1.2 1.6s.3 1 .5 1.4c.3.4.6.7 1 1 .4.2.9.3 1.5.3zm10.6.8V40.8h4.4c.4 0 .9.1 1.2.3.4.2.7.4 1 .7.3.3.5.7.6 1 .2.4.2.8.2 1.2 0 .4-.1.7-.2 1.1-.1.3-.3.7-.5.9-.2.3-.4.5-.7.7-.3.2-.6.3-.9.4l2.5 4H124l-2.4-3.8h-3v3.8h-1.1zm1-4.7h3.4c.3 0 .6-.1.8-.2.2-.1.5-.3.6-.5s.3-.5.4-.8c.1-.3.1-.6.1-.9s-.1-.6-.2-.9c-.1-.3-.3-.5-.5-.7-.2-.2-.4-.4-.7-.5-.3-.1-.5-.2-.8-.2h-3.3v4.7zm25.7-3.6c-.3-.3-.7-.6-1.2-.8-.5-.2-1-.3-1.7-.3-.9 0-1.6.2-2 .5-.4.3-.6.8-.6 1.4 0 .3.1.6.2.8.1.2.3.4.5.5.2.1.5.3.9.4.4.1.8.2 1.3.3.6.1 1 .2 1.5.4.4.1.8.3 1.1.5.3.2.5.5.7.8.2.3.2.7.2 1.2s-.1.9-.3 1.2c-.2.3-.4.6-.8.9-.3.2-.7.4-1.2.5-.5.1-1 .2-1.5.2-1.6 0-3-.5-4.1-1.5l.5-.8c.2.2.4.4.7.6.3.2.5.3.9.5.3.1.6.2 1 .3.4.1.7.1 1.1.1.8 0 1.5-.1 1.9-.4.5-.3.7-.7.7-1.3 0-.3-.1-.6-.2-.8-.1-.2-.3-.4-.6-.6-.3-.2-.6-.3-1-.4-.4-.1-.8-.2-1.3-.3-.5-.1-1-.3-1.4-.4-.4-.1-.8-.3-1-.5s-.5-.4-.6-.7c-.1-.3-.2-.6-.2-1.1 0-.5.1-.9.3-1.3.2-.4.4-.7.8-.9.3-.2.7-.4 1.2-.6.4-.1.9-.2 1.5-.2.7 0 1.3.1 1.8.3.5.2 1 .5 1.5.9l-.6.6zm6.6 8.3V40.8h1v9.4h6v.9h-7zm15.7.1c-.7 0-1.4-.1-2-.4-.6-.3-1.1-.7-1.5-1.2-.4-.5-.8-1-1-1.7-.2-.6-.3-1.3-.3-1.9 0-.7.1-1.3.4-2 .2-.6.6-1.2 1-1.7s.9-.9 1.5-1.2c.6-.3 1.2-.4 1.9-.4s1.4.2 2 .5c.6.3 1.1.7 1.5 1.2.4.5.7 1.1 1 1.7.2.6.3 1.3.3 1.9 0 .7-.1 1.3-.4 2-.2.6-.6 1.2-1 1.7s-.9.9-1.5 1.1c-.6.3-1.2.4-1.9.4zm-3.8-5.2c0 .6.1 1.1.3 1.6.2.5.4 1 .8 1.4.3.4.7.7 1.2 1 .5.2 1 .4 1.6.4.6 0 1.1-.1 1.6-.4.5-.3.9-.6 1.2-1 .3-.4.6-.9.8-1.4s.3-1 .3-1.6c0-.6-.1-1.1-.3-1.6s-.5-1-.8-1.4c-.3-.4-.7-.7-1.2-1-.5-.2-1-.4-1.5-.4-.6 0-1.1.1-1.6.4-.5.2-.9.6-1.2 1-.3.4-.6.9-.8 1.4-.3.5-.4 1.1-.4 1.6zm21.8 3.6c-1 1.1-2.1 1.6-3.3 1.6-.7 0-1.3-.1-1.9-.4-.6-.3-1.1-.7-1.5-1.2-.4-.5-.8-1.1-1-1.7-.2-.6-.4-1.3-.4-1.9 0-.7.1-1.3.4-2 .2-.6.6-1.2 1-1.7s.9-.9 1.5-1.1c.6-.3 1.2-.4 1.9-.4.5 0 1 .1 1.4.2.4.1.8.3 1.1.5.3.2.6.4.8.7l.6.9-.8.5c-.3-.6-.8-1.1-1.3-1.4-.5-.3-1.2-.5-1.8-.5-.6 0-1.1.1-1.5.4-.5.2-.9.6-1.2 1-.3.4-.6.9-.7 1.4-.2.5-.3 1.1-.3 1.6 0 .6.1 1.1.3 1.7.2.5.5 1 .8 1.4.3.4.8.7 1.2.9.5.2 1 .3 1.5.3.6 0 1.2-.1 1.7-.4s1.1-.7 1.5-1.3V47h-2.3v-.8h3.1v5.1h-.9v-1.7zm9.9-8.8h.9l4.3 10.3h-1.1l-1.3-3.2h-4.6l-1.3 3.2h-1.1l4.2-10.3zm2.5 6.3l-2.1-5.1-2.1 5.1h4.2zm8.9-4.4v8.4h-1V40.8h.8l6.8 8.6v-8.6h1v10.3h-.9l-6.7-8.4zm29.6-1.9v10.3h-1v-4.8h-6.1v4.8h-1V40.8h1v4.6h6.1v-4.6h1zm13.2 9.4v.9h-6.9V40.8h6.8v.9h-5.8v3.7h5v.9h-5v3.9h5.9zm5.7.9V40.8h4.4c.4 0 .9.1 1.2.3.4.2.7.4 1 .7.3.3.5.7.6 1 .1.4.2.8.2 1.2 0 .4-.1.7-.2 1.1-.1.3-.3.7-.5.9-.2.3-.4.5-.7.7-.3.2-.6.3-.9.4l2.5 4h-1.1l-2.4-3.8h-3v3.8h-1.1zm1-4.7h3.4c.3 0 .6-.1.8-.2.2-.1.5-.3.6-.5.2-.2.3-.5.4-.8.1-.3.1-.6.1-.9s-.1-.6-.2-.9c-.1-.3-.3-.5-.5-.7-.2-.2-.4-.4-.7-.5-.3-.1-.5-.2-.8-.2h-3.3v4.7zm19.2 3.8v.9h-6.9V40.8h6.8v.9h-5.8v3.7h5v.9h-5v3.9h5.9z"/></svg>