<svg xmlns="http://www.w3.org/2000/svg" width="230" height="64" viewBox="0 0 230 64"><linearGradient id="a" gradientUnits="userSpaceOnUse" x1="68.3418" y1="22.9863" x2="51.7053" y2="51.8015"><stop offset="0" stop-color="#90145a"/><stop offset=".2558" stop-color="#a81d58" stop-opacity=".9923"/><stop offset=".7936" stop-color="#e63452" stop-opacity=".9762"/><stop offset="1" stop-color="#ff3e4f" stop-opacity=".97"/></linearGradient><path fill="url(#a)" d="M67.5 60.9l6-10.7-21-36.4-6.3 10.9z"/><linearGradient id="b" gradientUnits="userSpaceOnUse" x1="42.9219" y1="22.8975" x2="65.5483" y2="62.0877"><stop offset="0" stop-color="#90145a"/><stop offset=".2558" stop-color="#a81d58" stop-opacity=".9923"/><stop offset=".7936" stop-color="#e63452" stop-opacity=".9762"/><stop offset="1" stop-color="#ff3e4f" stop-opacity=".97"/></linearGradient><path fill="url(#b)" d="M67.5 60.9h-4.4L40.9 24l5.3.7z"/><linearGradient id="c" gradientUnits="userSpaceOnUse" x1="46.7241" y1="13.8193" x2="46.7241" y2="24.7119"><stop offset="0" stop-color="#90145a"/><stop offset=".2558" stop-color="#a81d58" stop-opacity=".9923"/><stop offset=".7936" stop-color="#e63452" stop-opacity=".9762"/><stop offset="1" stop-color="#ff3e4f" stop-opacity=".97"/></linearGradient><path fill="url(#c)" d="M40.9 24.1l6.4-10.3h5.2l-6.3 10.9z"/><g><linearGradient id="d" gradientUnits="userSpaceOnUse" x1="30.5068" y1="62" x2="30.5068" y2="51.0059"><stop offset="0" stop-color="#90145a"/><stop offset=".2558" stop-color="#a81d58" stop-opacity=".9923"/><stop offset=".7936" stop-color="#e63452" stop-opacity=".9762"/><stop offset="1" stop-color="#ff3e4f" stop-opacity=".97"/></linearGradient><path fill="url(#d)" d="M2.7 51l5.2 10.9 50.4.1-6-11z"/><linearGradient id="e" gradientUnits="userSpaceOnUse" x1="9.3247" y1="38.958" x2="46.7693" y2="60.5767"><stop offset="0" stop-color="#90145a"/><stop offset=".2558" stop-color="#a81d58" stop-opacity=".9923"/><stop offset=".7936" stop-color="#e63452" stop-opacity=".9762"/><stop offset="1" stop-color="#ff3e4f" stop-opacity=".97"/></linearGradient><path fill="url(#e)" d="M2.7 51l2.8-5.5 42.9.2 3.9 5.3z"/></g><g><linearGradient id="f" gradientUnits="userSpaceOnUse" x1="25.126" y1="38.7148" x2="25.126" y2="2"><stop offset="0" stop-color="#90145a"/><stop offset=".2558" stop-color="#a81d58" stop-opacity=".9923"/><stop offset=".7936" stop-color="#e63452" stop-opacity=".9762"/><stop offset="1" stop-color="#ff3e4f" stop-opacity=".97"/></linearGradient><path fill="url(#f)" d="M20.1 38.7H8.4L29.7 2l12.1.1z"/><linearGradient id="g" gradientUnits="userSpaceOnUse" x1="41.9639" y1="22.3608" x2="23.5257" y2="19.1097"><stop offset="0" stop-color="#90145a"/><stop offset=".2558" stop-color="#a81d58" stop-opacity=".9923"/><stop offset=".7936" stop-color="#e63452" stop-opacity=".9762"/><stop offset="1" stop-color="#ff3e4f" stop-opacity=".97"/></linearGradient><path fill="url(#g)" d="M20.1 38.7l6-1.8L44.9 5.6l-3.1-3.5z"/></g><path fill="#90145A" d="M81.8 27.9h6.4v3.2h-9.7V14.3h3.3v13.6zm21.4 1c-1.7 1.7-3.8 2.5-6.2 2.5s-4.5-.8-6.2-2.5c-1.7-1.7-2.5-3.8-2.5-6.2 0-2.4.8-4.5 2.5-6.2 1.7-1.7 3.7-2.5 6.2-2.5s4.5.8 6.2 2.5c1.7 1.7 2.5 3.8 2.5 6.2 0 2.4-.8 4.5-2.5 6.2zm-10.1-2.3c1 1 2.3 1.5 3.9 1.5s2.8-.5 3.9-1.5c1-1 1.6-2.3 1.6-3.9s-.5-2.9-1.6-4c-1-1-2.3-1.6-3.9-1.6s-2.8.5-3.9 1.6c-1 1-1.6 2.4-1.6 4s.6 2.9 1.6 3.9zm24.1 4.5l-3.4-5.8h-2.5v5.8H108V14.3h6.7c1.6 0 2.9.5 4 1.6s1.6 2.4 1.6 3.9c0 1-.3 2-.9 2.9-.6.9-1.4 1.6-2.4 2l3.7 6.3h-3.5zm-5.9-13.7v5h3.4c.6 0 1.2-.2 1.6-.7.4-.5.7-1.1.7-1.8s-.2-1.3-.7-1.8c-.4-.5-1-.7-1.6-.7h-3.4zm14.8 10.5h7.1v3.2h-10.4V14.3H133v3.2h-7V21h6.4v3.1H126v3.8zm25.8-13.6v16.8h-3.3V20.2l-4.7 7.8h-.4l-4.7-7.8v10.9h-3.3V14.3h3.4l4.8 7.9 4.8-7.9h3.4zm9.1 0h3.3v16.8H161V14.3zm12.7 0c1.6 0 3 .5 4.1 1.6 1.1 1.1 1.7 2.4 1.7 4s-.6 2.9-1.7 4-2.5 1.6-4.1 1.6h-3V31h-3.3V14.3h6.3zm0 8.1c.7 0 1.3-.2 1.8-.7.5-.5.7-1.1.7-1.8s-.2-1.3-.7-1.8c-.5-.5-1-.7-1.8-.7h-3v5.1h3zm13.2 9c-1.7 0-3.1-.4-4.2-1.1-1.1-.7-1.9-1.8-2.4-3l2.8-1.7c.7 1.7 1.9 2.6 3.9 2.6.9 0 1.6-.2 2-.5.4-.3.6-.8.6-1.3 0-.6-.3-1.1-.8-1.4-.5-.3-1.5-.7-2.8-1.1-.8-.2-1.4-.4-1.9-.7s-1-.5-1.6-.9c-.5-.4-.9-.9-1.2-1.4s-.4-1.2-.4-2c0-1.5.5-2.7 1.6-3.6s2.4-1.4 3.9-1.4c1.4 0 2.6.3 3.6 1s1.8 1.6 2.4 2.8l-2.8 1.6c-.7-1.4-1.7-2.2-3.2-2.2-.7 0-1.2.2-1.6.5s-.6.7-.6 1.2.2 1 .7 1.3c.4.3 1.3.7 2.5 1.1.5.2.9.3 1.2.4.3.1.6.2 1.1.4.5.2.8.4 1.1.5s.5.4.9.6.6.6.7.8.3.6.4 1c.1.4.2.9.2 1.3 0 1.6-.6 2.8-1.7 3.7-1.1 1-2.6 1.5-4.4 1.5zm14.5 0c-1.9 0-3.4-.5-4.6-1.6-1.2-1.1-1.8-2.5-1.8-4.2V14.3h3.3v11c0 .9.3 1.6.8 2.1s1.3.8 2.4.8c1.1 0 1.9-.3 2.4-.8s.8-1.2.8-2.1v-11h3.3v11.3c0 1.8-.6 3.2-1.8 4.2s-2.9 1.6-4.8 1.6zm25.9-17.1v16.8H224V20.2l-4.7 7.8h-.4l-4.7-7.8v10.9h-3.3V14.3h3.4l4.8 7.9 4.8-7.9h3.4z"/><path fill="#FF3E4F" d="M86.8 41.5l-3 5v3.4H83v-3.5l-3-4.9h.9l2.5 4.1 2.5-4.1h.9zm14 7.3c-.8.8-1.9 1.3-3.1 1.3s-2.2-.4-3.1-1.3c-.8-.8-1.3-1.9-1.3-3.1 0-1.2.4-2.2 1.3-3.1.8-.8 1.9-1.3 3.1-1.3s2.2.4 3.1 1.3c.8.8 1.3 1.9 1.3 3.1 0 1.2-.4 2.3-1.3 3.1zm-5.6-.6c.7.7 1.5 1 2.5 1s1.8-.3 2.5-1 1-1.5 1-2.5-.3-1.8-1-2.5-1.5-1-2.5-1-1.8.3-2.5 1-1 1.5-1 2.5.4 1.9 1 2.5zm20.1 1.1c-.6.5-1.3.8-2.3.8-.9 0-1.7-.3-2.3-.8-.6-.5-.9-1.3-.9-2.2v-5.5h.8v5.5c0 .7.2 1.2.6 1.6.4.4 1 .6 1.7.6s1.3-.2 1.7-.6c.4-.4.6-.9.6-1.6v-5.5h.8v5.5c.2.9-.1 1.6-.7 2.2zm14.4.6l-2-3.4h-2.4v3.4h-.8v-8.4h3.4c.7 0 1.3.2 1.8.7.5.5.7 1.1.7 1.8 0 .6-.2 1.1-.5 1.5-.3.4-.8.7-1.3.9l2.1 3.5h-1zm-4.3-7.6v3.5h2.5c.5 0 .9-.2 1.2-.5.3-.3.5-.7.5-1.2s-.2-.9-.5-1.2-.7-.5-1.2-.5h-2.5zm25.3 7.8c-.8 0-1.4-.2-2-.5-.5-.4-.9-.9-1.1-1.5l.7-.4c.2.5.4.9.8 1.2s.9.4 1.6.4c.6 0 1.1-.1 1.5-.4s.5-.6.5-1.1c0-.4-.2-.8-.5-1-.3-.2-.8-.5-1.6-.7-.9-.3-1.4-.5-1.7-.7-.6-.4-1-.9-1-1.7 0-.7.2-1.3.7-1.7s1.1-.6 1.8-.6 1.2.2 1.7.5.8.8 1.1 1.3l-.7.4c-.4-.9-1.1-1.4-2.1-1.4-.5 0-.9.1-1.3.4-.3.3-.5.6-.5 1.1 0 .4.1.7.4.9s.8.4 1.4.6c.3.1.5.2.7.2s.3.1.6.2.4.2.6.3.3.2.4.3c.2.1.3.3.4.4.1.1.1.3.2.5s.1.4.1.6c0 .7-.3 1.3-.8 1.7-.3.5-1 .7-1.9.7zm11.7-1h3.8v.8h-4.7v-8.4h.8v7.6zm18-.3c-.8.8-1.9 1.3-3.1 1.3-1.2 0-2.2-.4-3.1-1.3-.8-.8-1.3-1.9-1.3-3.1 0-1.2.4-2.2 1.3-3.1.8-.8 1.9-1.3 3.1-1.3 1.2 0 2.2.4 3.1 1.3.8.8 1.3 1.9 1.3 3.1-.1 1.2-.5 2.3-1.3 3.1zm-5.6-.6c.7.7 1.5 1 2.5 1s1.8-.3 2.5-1 1-1.5 1-2.5-.3-1.8-1-2.5-1.5-1-2.5-1-1.8.3-2.5 1-1 1.5-1 2.5.3 1.9 1 2.5zm22.9-2.3v.4c0 1-.4 1.9-1.1 2.6-.7.7-1.7 1.1-3 1.1s-2.3-.4-3.2-1.3c-.8-.8-1.2-1.9-1.2-3.1 0-1.2.4-2.2 1.2-3.1.8-.8 1.9-1.3 3.2-1.3.8 0 1.5.2 2.1.6.6.4 1.1.9 1.5 1.5l-.7.4c-.3-.5-.7-.9-1.2-1.2-.5-.3-1.1-.5-1.7-.5-1 0-1.9.3-2.6 1-.7.7-1 1.5-1 2.5s.3 1.8 1 2.5 1.5 1 2.6 1c.9 0 1.7-.2 2.3-.7.6-.5.9-1.1 1-1.8h-3.3v-.8h4.1zm13.3 4l-.8-2.1h-4l-.8 2.1h-.9l3.2-8.4h.9l3.2 8.4h-.8zm-4.4-2.8h3.4l-1.7-4.5-1.7 4.5zm18.4-5.6h.8v8.4h-.7l-4.7-6.8v6.8h-.8v-8.4h.7l4.7 6.8v-6.8z"/></svg>