<svg xmlns="http://www.w3.org/2000/svg" width="160" height="64" viewBox="0 0 160 64"><path fill="#D7DF32" d="M30.1 12.3V2v10.3z"/><path fill="#9D0208" d="M30.1 51.7L13 41.9 4.1 47l26 15 26-15-8.9-5.1-17.1 9.8z"/><path fill="#F48C06" d="M47.2 22.1v19.8l8.9 5.1V17l-26-15v10.3z"/><path fill="#DC2F02" d="M4.1 47l8.9-5.1V22.2l17.1-9.8V2.1l-26 15V47z"/><path fill="#FFBA08" d="M19 25.6L30.1 32l11.1-6.4-11.1-6.4L19 25.6z"/><path fill="#DC2F02" d="M30.1 32v12.9l11.1-6.5V25.6z"/><path fill="#F48C06" d="M19 25.6v12.8l11.1 6.5V32z"/><path fill="#9D0208" d="M61.5 32.4V11.6h4.7v16.9h8.3v4h-13zm23.9.4c-1.4 0-2.7-.3-3.9-.8s-2.2-1.2-3-2.2c-.8-.9-1.5-2.1-1.9-3.4-.5-1.3-.7-2.9-.7-4.6 0-1.7.2-3.2.7-4.6.5-1.3 1.1-2.5 1.9-3.4.8-.9 1.8-1.6 3-2.1s2.4-.7 3.9-.7 2.7.2 3.9.7c1.2.5 2.2 1.2 3 2.1s1.5 2 1.9 3.4.7 2.8.7 4.5c0 1.7-.2 3.2-.7 4.6s-1.1 2.5-1.9 3.4c-.8.9-1.8 1.7-3 2.2s-2.5.9-3.9.9zm0-4c1.4 0 2.6-.6 3.4-1.8s1.2-2.9 1.2-5-.4-3.7-1.2-4.9-2-1.8-3.4-1.8-2.6.6-3.4 1.8-1.2 2.8-1.2 4.9c0 2.1.4 3.8 1.2 5s2 1.8 3.4 1.8zm13.4 3.6V11.6h7.5c1.1 0 2.1.1 3.1.3 1 .2 1.8.6 2.5 1.1.7.5 1.3 1.2 1.7 2s.6 1.9.6 3.1c0 1.5-.3 2.8-1 3.8s-1.6 1.7-2.7 2.2l4.7 8.4h-5.3l-4-7.5h-2.6v7.5h-4.5zm4.7-11.2h2.4c1.2 0 2.2-.3 2.8-.8s1-1.3 1-2.3c0-1-.3-1.7-1-2.1s-1.6-.6-2.8-.6h-2.4v5.8zm15 11.2V11.6h13.1v4h-8.4v4.2h7.1v3.9h-7.1v4.8h8.7v4h-13.4zm17.5 0V11.6h5.2l3.4 9.3c.2.6.4 1.3.6 1.9.2.7.4 1.3.6 1.9h.1c.2-.6.4-1.3.6-1.9s.4-1.3.6-1.9l3.3-9.3h5.1v20.9h-4.3v-7.6c0-.5 0-1.1.1-1.7 0-.6.1-1.2.2-1.9.1-.6.1-1.2.2-1.9.1-.6.1-1.2.2-1.7h-.1l-1.7 5-3 8h-2.6l-3-8-1.7-5h-.1c.1.5.1 1.1.2 1.7.1.6.1 1.2.2 1.9s.1 1.3.2 1.9c0 .6.1 1.2.1 1.7v7.6H136z"/><path fill="#DC2F02" d="M64.2 49.2v-4.1L61 38.7h1.4l1.4 3c.2.4.3.8.5 1.1.2.4.3.8.5 1.2h.1c.2-.4.4-.8.5-1.2.2-.4.4-.8.5-1.1l1.3-3h1.4l-3.2 6.4v4.1h-1.2zm9.5.2c-.5 0-.9-.1-1.4-.3-.4-.2-.8-.4-1.1-.8-.3-.3-.6-.8-.8-1.3s-.3-1.1-.3-1.7c0-.7.1-1.2.3-1.7s.5-.9.8-1.3c.3-.4.7-.6 1.1-.8.4-.2.9-.3 1.4-.3.5 0 .9.1 1.4.3.4.2.8.4 1.1.8.3.4.6.8.8 1.3.2.5.3 1.1.3 1.7 0 .6-.1 1.2-.3 1.7-.2.5-.5.9-.8 1.3-.3.3-.7.6-1.1.8-.5.2-.9.3-1.4.3zm0-1.1c.3 0 .6-.1.9-.2.3-.1.5-.3.7-.6s.3-.6.5-.9c.1-.4.2-.8.2-1.2 0-.4-.1-.9-.2-1.2s-.3-.7-.5-1-.4-.5-.7-.6c-.3-.1-.6-.2-.9-.2-.3 0-.6.1-.9.2-.3.1-.5.3-.7.6s-.3.6-.5 1-.2.8-.2 1.2c0 .4.1.9.2 1.2.1.4.3.7.5.9s.4.5.7.6c.2.2.5.2.9.2zm9.2 1.1c-.8 0-1.4-.3-1.8-.8-.4-.5-.6-1.3-.6-2.3v-4.9h1.3v4.8c0 .7.1 1.3.3 1.6.2.3.6.5 1.1.5.4 0 .8-.1 1.1-.3s.7-.5 1-1v-5.5h1.3v7.8h-1.1V48c-.4.4-.8.8-1.2 1-.4.3-.9.4-1.4.4zm7.7-.2v-7.8h1.1l.1 1.4c.3-.5.6-.9 1-1.2s.8-.4 1.2-.4c.3 0 .6.1.8.2l-.3 1.2c-.1 0-.2-.1-.4-.1h-.4c-.3 0-.7.1-1 .4s-.7.7-.9 1.4v5h-1.2zm13.6 0v-9.4H101v-1.1h7.7v1.1h-3.2v9.4h-1.3zm8.2.2c-.7 0-1.2-.2-1.6-.6-.4-.4-.6-.9-.6-1.6 0-.9.4-1.5 1.1-2 .8-.5 2-.8 3.6-1 0-.2 0-.5-.1-.7s-.1-.4-.2-.6-.3-.3-.5-.4-.5-.2-.8-.2c-.4 0-.9.1-1.3.3-.4.2-.7.4-1.1.6l-.5-.9c.4-.2.8-.5 1.3-.7s1.1-.3 1.7-.3c.9 0 1.6.3 2.1.9s.6 1.4.6 2.3v4.8H115l-.1-.9c-.4.3-.8.6-1.2.8s-.8.2-1.3.2zm.4-1c.4 0 .7-.1 1.1-.3.3-.2.7-.4 1.1-.8v-2.2c-.7.1-1.2.2-1.6.3s-.8.3-1.1.4c-.3.2-.5.3-.6.6-.1.2-.2.4-.2.7 0 .4.1.8.4 1 .1.2.5.3.9.3zm9.7 4.4c-.5 0-.9 0-1.3-.1s-.7-.2-1-.4c-.3-.2-.5-.4-.7-.7-.2-.3-.2-.6-.2-.9 0-.3.1-.6.3-.9.2-.3.5-.6.8-.8v-.1c-.2-.1-.4-.3-.5-.5s-.2-.5-.2-.8c0-.3.1-.6.3-.9l.6-.6V46c-.3-.2-.5-.5-.7-.9s-.3-.8-.3-1.2c0-.4.1-.8.2-1.2l.6-.9c.2-.3.6-.4.9-.6.4-.1.7-.2 1.1-.2.2 0 .4 0 .6.1.2 0 .4.1.5.1h2.7v1h-1.6c.2.2.3.4.5.7.1.3.2.6.2.9 0 .4-.1.8-.2 1.1s-.4.6-.6.8-.6.4-.9.5c-.3.1-.7.2-1.1.2-.2 0-.4 0-.6-.1-.2 0-.4-.1-.6-.2-.1.1-.3.2-.4.4-.1.1-.1.3-.1.5s.1.4.3.6c.2.2.6.2 1.1.2h1.5c.9 0 1.6.1 2 .4.5.3.7.8.7 1.4 0 .4-.1.7-.3 1-.2.3-.4.6-.8.9-.3.2-.8.4-1.2.6-.4.6-.9.7-1.6.7zm.2-.9c.4 0 .7 0 1-.1.3-.1.6-.2.8-.4.2-.1.4-.3.5-.5.1-.2.2-.4.2-.6 0-.4-.1-.6-.4-.8s-.7-.2-1.2-.2h-1.8c-.2 0-.3-.1-.5-.1-.3.2-.5.4-.6.6-.1.2-.2.4-.2.7 0 .4.2.7.6 1 .4.3.9.4 1.6.4zm-.2-6c.2 0 .4 0 .6-.1s.4-.2.5-.4c.2-.2.3-.4.4-.6s.1-.5.1-.8c0-.6-.2-1-.5-1.3-.3-.3-.7-.5-1.2-.5s-.8.2-1.2.5c-.3.3-.5.8-.5 1.3 0 .3 0 .5.1.8.1.2.2.4.4.6.2.2.3.3.5.4.4 0 .6.1.8.1zm8.2 3.5c-.5 0-.9-.1-1.1-.4-.2-.3-.3-.7-.3-1.3v-9.8h1.3v9.9c0 .2 0 .4.1.4.1.1.2.1.3.1H131.3l.2 1c-.1 0-.2.1-.3.1h-.5zm4.6-9.6c-.3 0-.5-.1-.6-.2-.2-.2-.3-.4-.3-.6 0-.3.1-.5.3-.6.2-.2.4-.2.6-.2.3 0 .5.1.6.2.2.2.3.4.3.6 0 .2-.1.4-.3.6-.1.2-.3.2-.6.2zm-.7 9.4v-7.8h1.3v7.8h-1.3zm5.2 0v-7.8h1.1l.1 1.1c.4-.4.8-.7 1.2-.9.4-.3.9-.4 1.4-.4.8 0 1.4.3 1.8.8.4.5.6 1.3.6 2.3v4.9h-1.3v-4.8c0-.7-.1-1.3-.4-1.6-.2-.3-.6-.5-1.1-.5-.4 0-.8.1-1.1.3-.3.2-.7.5-1.1.9v5.6h-1.2zm13.2.2c-.5 0-1-.1-1.5-.3-.5-.2-.8-.5-1.2-.8s-.6-.8-.8-1.3c-.2-.5-.3-1.1-.3-1.7 0-.6.1-1.2.3-1.7.2-.5.5-.9.8-1.3.3-.4.7-.6 1.1-.8s.8-.3 1.3-.3.9.1 1.3.3c.4.2.7.4 1 .7s.5.7.6 1.2c.1.4.2 1 .2 1.5v.7h-5.2c.1.8.3 1.5.8 2s1.1.7 1.8.7c.4 0 .7-.1 1-.2.3-.1.6-.3.9-.4l.5.9c-.3.2-.7.4-1.1.6s-.9.2-1.5.2zm-2.4-4.7h4.2c0-.8-.2-1.4-.5-1.8-.3-.4-.8-.6-1.4-.6-.3 0-.5.1-.8.2-.3.1-.5.3-.7.5-.2.2-.4.5-.5.8-.2.2-.3.5-.3.9z"/></svg>